<?xml version="1.0" encoding="UTF-8" standalone="no"?>
<svg
   xmlns:dc="http://purl.org/dc/elements/1.1/"
   xmlns:cc="http://creativecommons.org/ns#"
   xmlns:rdf="http://www.w3.org/1999/02/22-rdf-syntax-ns#"
   xmlns:svg="http://www.w3.org/2000/svg"
   xmlns="http://www.w3.org/2000/svg"
   viewBox="0 0 610.3125 146.25"
   height="146.25"
   width="610.3125"
   xml:space="preserve"
   version="1.1"
   id="svg2"><metadata
     id="metadata8"><rdf:RDF><cc:Work
         rdf:about=""><dc:format>image/svg+xml</dc:format><dc:type
           rdf:resource="http://purl.org/dc/dcmitype/StillImage" /></cc:Work></rdf:RDF></metadata><defs
     id="defs6" /><g
     transform="matrix(1.25,0,0,-1.25,0,146.25)"
     id="g10"><g
       transform="scale(0.1,0.1)"
       id="g12"><path
         id="path14"
         style="fill:#ffffff;fill-opacity:1;fill-rule:evenodd;stroke:none"
         d="m 0,0 7762.5,0 0,2407.5 L 0,2407.5 0,0 Z" /><path
         id="path16"
         style="fill:#ffffff;fill-opacity:1;fill-rule:evenodd;stroke:none"
         d="m 514.5,749.102 c 1,39.828 33.57,72.398 74.398,72 l 758.402,0 c 41.13,0.398 73.7,-32.172 74.4,-72 l 0,-290.403 C 1421,417.57 1388.43,385 1347.3,384.301 l -758.402,0 C 548.07,385 515.5,417.57 514.5,458.699 l 0,290.403" /><path
         id="path18"
         style="fill:#000000;fill-opacity:1;fill-rule:nonzero;stroke:none"
         d="m 504.359,753.059 0.321,4.261 0.531,4.211 0.738,4.141 0.942,4.058 1.129,3.989 1.332,3.91 1.5,3.82 1.687,3.723 1.852,3.629 2.031,3.519 2.18,3.399 2.339,3.301 2.489,3.171 2.64,3.039 2.782,2.918 2.918,2.782 3.039,2.64 3.171,2.489 3.301,2.339 3.399,2.192 3.519,2.019 3.633,1.852 3.719,1.687 3.82,1.5 3.91,1.332 3.989,1.129 4.062,0.942 4.137,0.738 4.211,0.531 4.261,0.321 4.168,0.109 760.281,0 4.17,-0.109 4.26,-0.321 4.21,-0.531 4.14,-0.738 4.06,-0.942 3.99,-1.129 3.91,-1.332 3.82,-1.5 3.72,-1.687 3.63,-1.852 3.52,-2.019 3.4,-2.192 3.3,-2.339 3.17,-2.489 3.04,-2.64 2.92,-2.782 2.78,-2.918 2.64,-3.039 2.49,-3.171 2.34,-3.301 2.18,-3.399 2.03,-3.519 1.85,-3.629 1.69,-3.723 1.5,-3.82 1.33,-3.91 1.13,-3.989 0.94,-4.058 0.74,-4.141 0.53,-4.211 0.32,-4.261 0.11,-4.168 0,-291.282 -0.11,-4.168 -0.32,-4.261 -0.53,-4.211 -0.74,-4.141 -0.94,-4.058 -1.13,-3.989 -1.33,-3.91 -1.5,-3.82 -1.69,-3.723 -1.85,-3.629 -2.03,-3.519 -2.18,-3.399 -2.34,-3.301 -2.49,-3.171 -2.64,-3.039 -2.78,-2.918 -2.92,-2.782 -3.04,-2.64 -3.17,-2.489 -3.3,-2.339 -3.4,-2.18 -3.52,-2.031 -3.63,-1.852 -3.72,-1.687 -3.82,-1.5 -3.91,-1.321 -3.99,-1.14 -4.06,-0.942 -4.14,-0.738 -4.21,-0.531 -4.26,-0.321 -4.17,-0.109 -760.281,0 -4.168,0.109 -4.261,0.321 -4.211,0.531 -4.137,0.738 -4.062,0.942 -3.989,1.14 -3.91,1.321 -3.82,1.5 -3.719,1.687 -3.633,1.852 -3.519,2.031 -3.399,2.18 -3.301,2.339 -3.171,2.489 -3.039,2.64 -2.918,2.782 -2.782,2.918 -2.64,3.039 -2.489,3.171 -2.339,3.301 -2.18,3.399 -2.031,3.519 -1.852,3.629 -1.687,3.723 -1.5,3.82 -1.332,3.91 -1.129,3.989 -0.942,4.058 -0.738,4.141 -0.531,4.211 -0.321,4.261 -0.109,4.168 0,291.282 0.109,4.168 z m 22.391,-4.598 0,0.289 0,-291 0,0.289 0.09,-3.75 -0.031,0.57 0.281,-3.687 -0.051,0.558 0.461,-3.64 -0.09,0.558 0.641,-3.578 -0.11,0.551 0.809,-3.519 -0.141,0.539 0.981,-3.45 -0.16,0.528 1.14,-3.379 -0.191,0.519 1.301,-3.3 -0.211,0.511 1.461,-3.218 -0.239,0.488 1.598,-3.141 -0.258,0.481 1.758,-3.039 -0.289,0.461 1.898,-2.954 -0.308,0.454 2.031,-2.864 -0.32,0.434 2.16,-2.742 -0.34,0.41 2.277,-2.641 -0.359,0.403 2.41,-2.532 -0.379,0.379 2.532,-2.41 -0.403,0.359 2.641,-2.277 -0.41,0.34 2.742,-2.16 -0.434,0.32 2.864,-2.031 -0.454,0.308 2.954,-1.898 -0.473,0.289 3.051,-1.758 -0.481,0.258 3.141,-1.598 -0.488,0.239 3.218,-1.461 -0.511,0.211 3.3,-1.301 -0.519,0.191 3.379,-1.14 -0.528,0.16 3.45,-0.981 -0.539,0.141 3.519,-0.809 -0.551,0.11 3.578,-0.641 -0.558,0.09 3.64,-0.461 -0.558,0.051 3.687,-0.281 -0.57,0.031 3.75,-0.09 -0.289,0 760,0 -0.29,0 3.75,0.09 -0.57,-0.031 3.69,0.281 -0.56,-0.051 3.64,0.461 -0.56,-0.09 3.58,0.641 -0.55,-0.11 3.52,0.809 -0.54,-0.141 3.45,0.981 -0.53,-0.16 3.38,1.14 -0.52,-0.191 3.3,1.301 -0.51,-0.211 3.23,1.461 -0.5,-0.239 3.14,1.598 -0.48,-0.258 3.04,1.758 -0.46,-0.289 2.95,1.898 -0.45,-0.308 2.86,2.031 -0.43,-0.32 2.74,2.16 -0.41,-0.34 2.64,2.277 -0.4,-0.359 2.53,2.41 -0.38,-0.379 2.41,2.532 -0.36,-0.403 2.28,2.641 -0.34,-0.41 2.16,2.742 -0.32,-0.434 2.03,2.864 -0.31,-0.454 1.9,2.954 -0.29,-0.461 1.76,3.039 -0.26,-0.481 1.6,3.141 -0.24,-0.488 1.46,3.218 -0.21,-0.511 1.3,3.3 -0.19,-0.519 1.14,3.379 -0.16,-0.528 0.98,3.45 -0.14,-0.539 0.81,3.519 -0.11,-0.551 0.64,3.578 -0.09,-0.558 0.46,3.64 -0.05,-0.558 0.28,3.687 -0.03,-0.57 0.09,3.75 0,-0.289 0,291 0,-0.289 -0.09,3.75 0.03,-0.57 -0.28,3.691 0.05,-0.562 -0.46,3.64 0.09,-0.558 -0.64,3.578 0.11,-0.551 -0.81,3.519 0.14,-0.539 -0.98,3.45 0.16,-0.528 -1.14,3.379 0.19,-0.519 -1.3,3.3 0.21,-0.511 -1.46,3.23 0.24,-0.5 -1.6,3.141 0.26,-0.481 -1.76,3.051 0.29,-0.473 -1.9,2.954 0.31,-0.454 -2.03,2.864 0.32,-0.43 -2.16,2.738 0.34,-0.41 -2.28,2.641 0.36,-0.403 -2.41,2.532 0.38,-0.379 -2.53,2.41 0.4,-0.359 -2.64,2.277 0.41,-0.34 -2.74,2.16 0.43,-0.32 -2.86,2.031 0.45,-0.308 -2.95,1.898 0.46,-0.289 -3.04,1.758 0.48,-0.258 -3.14,1.598 0.5,-0.239 -3.23,1.461 0.51,-0.211 -3.3,1.301 0.52,-0.191 -3.38,1.14 0.53,-0.16 -3.45,0.981 0.54,-0.141 -3.52,0.809 0.55,-0.11 -3.58,0.641 0.56,-0.09 -3.64,0.461 0.56,-0.051 -3.69,0.281 0.57,-0.031 -3.75,0.09 0.29,0 -760,0 0.289,0 -3.75,-0.09 0.57,0.031 -3.687,-0.281 0.558,0.051 -3.64,-0.461 0.558,0.09 -3.578,-0.641 0.551,0.11 -3.519,-0.809 0.539,0.141 -3.45,-0.981 0.528,0.16 -3.379,-1.14 0.519,0.191 -3.3,-1.301 0.511,0.211 -3.218,-1.461 0.488,0.239 -3.141,-1.598 0.481,0.258 -3.051,-1.758 0.473,0.289 -2.954,-1.898 0.454,0.308 -2.864,-2.031 0.434,0.32 -2.742,-2.16 0.41,0.34 -2.641,-2.277 0.403,0.359 -2.532,-2.41 0.379,0.379 -2.41,-2.532 0.359,0.403 -2.277,-2.641 0.34,0.41 -2.16,-2.738 0.32,0.43 -2.031,-2.864 0.308,0.454 -1.898,-2.954 0.289,0.473 -1.758,-3.051 0.258,0.481 -1.598,-3.141 0.239,0.5 -1.461,-3.23 0.211,0.511 -1.301,-3.3 0.191,0.519 -1.14,-3.379 0.16,0.528 -0.981,-3.45 0.141,0.539 -0.809,-3.519 0.11,0.551 -0.641,-3.578 0.09,0.558 -0.461,-3.64 0.051,0.562 -0.281,-3.691 0.031,0.57 -0.09,-3.75" /><g
         transform="scale(10,10)"
         id="g20"><text
           id="text22"
           style="font-variant:normal;font-weight:normal;font-size:16.10000038px;font-family:WenQuanYiMicroHei;-inkscape-font-specification:WenQuanYiMicroHei;writing-mode:lr-tb;fill:#000000;fill-opacity:1;fill-rule:nonzero;stroke:none"
           transform="matrix(1,0,0,-1,67.9309,55.1191)"><tspan
             id="tspan24"
             y="0"
             x="0 7.8499975 15.699995 24.799995 38.700001 42.850002 48.250008">LLVM IR</tspan></text>
</g><path
         id="path26"
         style="fill:#ffffff;fill-opacity:1;fill-rule:evenodd;stroke:none"
         d="m 3334.5,749.102 c 1,39.828 33.57,72.398 74.4,72 l 758.4,0 c 41.13,0.398 73.7,-32.172 74.4,-72 l 0,-290.403 C 4241,417.57 4208.43,385 4167.3,384.301 l -758.4,0 c -40.83,0.699 -73.4,33.269 -74.4,74.398 l 0,290.403" /><path
         id="path28"
         style="fill:#000000;fill-opacity:1;fill-rule:nonzero;stroke:none"
         d="m 3324.36,753.059 0.32,4.261 0.53,4.211 0.74,4.141 0.94,4.058 1.13,3.989 1.33,3.91 1.5,3.82 1.69,3.723 1.85,3.629 2.02,3.519 2.19,3.399 2.34,3.301 2.49,3.171 2.64,3.039 2.78,2.918 2.92,2.782 3.04,2.64 3.17,2.489 3.3,2.339 3.4,2.192 3.52,2.019 3.63,1.852 3.72,1.687 3.82,1.5 3.91,1.332 3.99,1.129 4.06,0.942 4.14,0.738 4.21,0.531 4.26,0.321 4.17,0.109 760.28,0 4.17,-0.109 4.26,-0.321 4.21,-0.531 4.14,-0.738 4.06,-0.942 3.99,-1.129 3.91,-1.332 3.82,-1.5 3.72,-1.687 3.63,-1.852 3.52,-2.019 3.4,-2.192 3.3,-2.339 3.17,-2.489 3.04,-2.64 2.92,-2.782 2.78,-2.918 2.64,-3.039 2.49,-3.171 2.34,-3.301 2.18,-3.399 2.03,-3.519 1.85,-3.629 1.69,-3.723 1.5,-3.82 1.32,-3.91 1.14,-3.989 0.94,-4.058 0.74,-4.141 0.53,-4.211 0.32,-4.261 0.11,-4.168 0,-291.282 -0.11,-4.168 -0.32,-4.261 -0.53,-4.211 -0.74,-4.141 -0.94,-4.058 -1.14,-3.989 -1.32,-3.91 -1.5,-3.82 -1.69,-3.723 -1.85,-3.629 -2.03,-3.519 -2.18,-3.399 -2.34,-3.301 -2.49,-3.171 -2.64,-3.039 -2.78,-2.918 -2.92,-2.782 -3.04,-2.64 -3.17,-2.489 -3.3,-2.339 -3.4,-2.18 -3.52,-2.031 -3.63,-1.852 -3.72,-1.687 -3.82,-1.5 -3.91,-1.321 -3.99,-1.14 -4.06,-0.942 -4.14,-0.738 -4.21,-0.531 -4.26,-0.321 -4.17,-0.109 -760.28,0 -4.17,0.109 -4.26,0.321 -4.21,0.531 -4.14,0.738 -4.06,0.942 -3.99,1.14 -3.91,1.321 -3.82,1.5 -3.72,1.687 -3.63,1.852 -3.52,2.031 -3.4,2.18 -3.3,2.339 -3.17,2.489 -3.04,2.64 -2.92,2.782 -2.78,2.918 -2.64,3.039 -2.49,3.171 -2.34,3.301 -2.19,3.399 -2.02,3.519 -1.85,3.629 -1.69,3.723 -1.5,3.82 -1.33,3.91 -1.13,3.989 -0.94,4.058 -0.74,4.141 -0.53,4.211 -0.32,4.261 -0.11,4.168 0,291.282 0.11,4.168 z m 22.39,-4.598 0,0.289 0,-291 0,0.289 0.09,-3.75 -0.03,0.57 0.28,-3.687 -0.05,0.558 0.46,-3.64 -0.09,0.558 0.64,-3.578 -0.11,0.551 0.81,-3.519 -0.14,0.539 0.98,-3.45 -0.16,0.528 1.14,-3.379 -0.19,0.519 1.3,-3.3 -0.21,0.511 1.45,-3.218 -0.23,0.488 1.6,-3.141 -0.26,0.481 1.75,-3.039 -0.28,0.461 1.9,-2.954 -0.31,0.454 2.03,-2.864 -0.32,0.434 2.16,-2.742 -0.34,0.41 2.28,-2.641 -0.36,0.403 2.41,-2.532 -0.38,0.379 2.53,-2.41 -0.4,0.359 2.64,-2.277 -0.41,0.34 2.74,-2.16 -0.43,0.32 2.85,-2.031 -0.44,0.308 2.95,-1.898 -0.47,0.289 3.05,-1.758 -0.48,0.258 3.14,-1.598 -0.49,0.239 3.22,-1.461 -0.51,0.211 3.3,-1.301 -0.52,0.191 3.38,-1.14 -0.53,0.16 3.45,-0.981 -0.54,0.141 3.52,-0.809 -0.55,0.11 3.58,-0.641 -0.56,0.09 3.64,-0.461 -0.56,0.051 3.69,-0.281 -0.57,0.031 3.75,-0.09 -0.29,0 760,0 -0.29,0 3.75,0.09 -0.57,-0.031 3.69,0.281 -0.56,-0.051 3.64,0.461 -0.56,-0.09 3.58,0.641 -0.55,-0.11 3.52,0.809 -0.54,-0.141 3.45,0.981 -0.53,-0.16 3.38,1.14 -0.52,-0.191 3.3,1.301 -0.51,-0.211 3.23,1.461 -0.5,-0.239 3.14,1.598 -0.48,-0.258 3.04,1.758 -0.46,-0.289 2.95,1.898 -0.45,-0.308 2.86,2.031 -0.43,-0.32 2.74,2.16 -0.41,-0.34 2.64,2.277 -0.4,-0.359 2.53,2.41 -0.38,-0.379 2.41,2.532 -0.36,-0.403 2.28,2.641 -0.34,-0.41 2.16,2.742 -0.32,-0.434 2.03,2.864 -0.31,-0.454 1.9,2.954 -0.29,-0.461 1.76,3.039 -0.26,-0.481 1.6,3.141 -0.24,-0.488 1.46,3.218 -0.21,-0.511 1.3,3.3 -0.19,-0.519 1.14,3.379 -0.16,-0.528 0.98,3.45 -0.14,-0.539 0.81,3.519 -0.11,-0.551 0.64,3.578 -0.09,-0.558 0.46,3.64 -0.05,-0.558 0.28,3.687 -0.03,-0.57 0.09,3.75 0,-0.289 0,291 0,-0.289 -0.09,3.75 0.03,-0.57 -0.28,3.691 0.05,-0.562 -0.46,3.64 0.09,-0.558 -0.64,3.578 0.11,-0.551 -0.81,3.519 0.14,-0.539 -0.98,3.45 0.16,-0.528 -1.14,3.379 0.19,-0.519 -1.3,3.3 0.21,-0.511 -1.46,3.23 0.24,-0.5 -1.6,3.141 0.26,-0.481 -1.76,3.051 0.29,-0.473 -1.9,2.954 0.31,-0.454 -2.03,2.864 0.32,-0.43 -2.16,2.738 0.34,-0.41 -2.28,2.641 0.36,-0.403 -2.41,2.532 0.38,-0.379 -2.53,2.41 0.4,-0.359 -2.64,2.277 0.41,-0.34 -2.74,2.16 0.43,-0.32 -2.86,2.031 0.45,-0.308 -2.95,1.898 0.46,-0.289 -3.04,1.758 0.48,-0.258 -3.14,1.598 0.5,-0.239 -3.23,1.461 0.51,-0.211 -3.3,1.301 0.52,-0.191 -3.38,1.14 0.53,-0.16 -3.45,0.981 0.54,-0.141 -3.52,0.809 0.55,-0.11 -3.58,0.641 0.56,-0.09 -3.64,0.461 0.56,-0.051 -3.69,0.281 0.57,-0.031 -3.75,0.09 0.29,0 -760,0 0.29,0 -3.75,-0.09 0.57,0.031 -3.69,-0.281 0.56,0.051 -3.64,-0.461 0.56,0.09 -3.58,-0.641 0.55,0.11 -3.52,-0.809 0.54,0.141 -3.45,-0.981 0.53,0.16 -3.38,-1.14 0.52,0.191 -3.3,-1.301 0.51,0.211 -3.22,-1.461 0.49,0.239 -3.14,-1.598 0.48,0.258 -3.05,-1.758 0.47,0.289 -2.95,-1.898 0.44,0.308 -2.85,-2.031 0.43,0.32 -2.74,-2.16 0.41,0.34 -2.64,-2.277 0.4,0.359 -2.53,-2.41 0.38,0.379 -2.41,-2.532 0.36,0.403 -2.28,-2.641 0.34,0.41 -2.16,-2.738 0.32,0.43 -2.03,-2.864 0.31,0.454 -1.9,-2.954 0.28,0.473 -1.75,-3.051 0.26,0.481 -1.6,-3.141 0.23,0.5 -1.45,-3.23 0.21,0.511 -1.3,-3.3 0.19,0.519 -1.14,-3.379 0.16,0.528 -0.98,-3.45 0.14,0.539 -0.81,-3.519 0.11,0.551 -0.64,-3.578 0.09,0.558 -0.46,-3.64 0.05,0.562 -0.28,-3.691 0.03,0.57 -0.09,-3.75" /><g
         transform="scale(10,10)"
         id="g30"><text
           id="text32"
           style="font-variant:normal;font-weight:normal;font-size:16.10000038px;font-family:WenQuanYiMicroHei;-inkscape-font-specification:WenQuanYiMicroHei;writing-mode:lr-tb;fill:#000000;fill-opacity:1;fill-rule:nonzero;stroke:none"
           transform="matrix(1,0,0,-1,344.581,55.1191)"><tspan
             id="tspan34"
             y="0"
             x="0 9.7499952 16.949987 24.149979 32.699978 47.04998 56.449974 60.599964">Assembly</tspan></text>
</g><path
         id="path36"
         style="fill:#000000;fill-opacity:1;fill-rule:nonzero;stroke:none"
         d="m 1829.57,567.27 68.08,38.359 -0.29,-19.43 -66.9,40.371 -1.88,1.418 -1.54,1.782 -1.14,2.058 -0.68,2.254 -0.2,2.34 0.29,2.34 0.77,2.218 1.22,2.008 1.6,1.723 1.93,1.348 2.17,0.91 2.31,0.453 2.35,-0.051 2.29,-0.531 2.13,-1 83.42,-50.34 -84.88,-47.84 -2.16,-0.93 -2.3,-0.468 -2.35,0.027 -2.3,0.512 -2.14,0.98 -1.89,1.399 -1.55,1.769 -1.16,2.051 -0.7,2.238 -0.22,2.34 0.27,2.344 0.75,2.226 1.2,2.024 1.59,1.726 1.91,1.372 z m -408.4,46.98 482.17,-7.172 -0.33,-22.5 -482.18,7.172 0.34,22.5" /><path
         id="path38"
         style="fill:#000000;fill-opacity:1;fill-rule:nonzero;stroke:none"
         d="m 3240,573.34 67.5,39.379 0,-19.438 -67.5,39.379 -1.89,1.391 -1.57,1.75 -1.16,2.051 -0.72,2.238 -0.24,2.34 0.26,2.332 0.74,2.238 1.18,2.031 1.58,1.739 1.91,1.371 2.15,0.949 2.31,0.48 2.35,-0.011 2.3,-0.5 2.14,-0.969 84.16,-49.09 -84.16,-49.09 -2.14,-0.969 -2.3,-0.5 -2.35,-0.011 -2.31,0.48 -2.15,0.949 -1.91,1.371 -1.58,1.739 -1.18,2.031 -0.74,2.238 -0.26,2.332 0.24,2.34 0.72,2.238 1.16,2.051 1.57,1.75 1.89,1.391 z m -643.5,40.91 716.67,0 0,-22.5 -716.67,0 0,22.5" /><path
         id="path40"
         style="fill:#ffffff;fill-opacity:1;fill-rule:evenodd;stroke:none"
         d="m 1925.7,741.898 c -0.2,39.532 32.37,72.102 72,72 l 760.8,0 c 39.93,0.102 72.5,-32.468 72,-72 l 0,-292.796 c 0.5,-39.032 -32.07,-71.602 -72,-72 l -760.8,0 c -39.63,0.398 -72.2,32.968 -72,72 l 0,292.796" /><path
         id="path42"
         style="fill:#000000;fill-opacity:1;fill-rule:nonzero;stroke:none"
         d="m 1914.36,745.559 0.32,4.261 0.53,4.211 0.74,4.141 0.94,4.058 1.13,3.989 1.33,3.91 1.5,3.82 1.69,3.723 1.85,3.629 2.02,3.519 2.19,3.399 2.34,3.301 2.49,3.171 2.64,3.039 2.78,2.918 2.92,2.782 3.04,2.64 3.17,2.489 3.3,2.339 3.4,2.192 3.52,2.019 3.63,1.852 3.72,1.687 3.82,1.5 3.91,1.332 3.99,1.129 4.06,0.942 4.14,0.738 4.21,0.531 4.26,0.321 4.17,0.109 760.28,0 4.17,-0.109 4.26,-0.321 4.21,-0.531 4.14,-0.738 4.06,-0.942 3.99,-1.129 3.91,-1.332 3.82,-1.5 3.72,-1.687 3.63,-1.852 3.52,-2.019 3.4,-2.192 3.3,-2.339 3.17,-2.489 3.04,-2.64 2.92,-2.782 2.78,-2.918 2.64,-3.039 2.49,-3.171 2.34,-3.301 2.18,-3.399 2.03,-3.519 1.85,-3.629 1.69,-3.723 1.5,-3.82 1.33,-3.91 1.13,-3.989 0.94,-4.058 0.74,-4.141 0.53,-4.211 0.32,-4.261 0.11,-4.168 0,-291.282 -0.11,-4.168 -0.32,-4.261 -0.53,-4.211 -0.74,-4.141 -0.94,-4.058 -1.13,-3.989 -1.33,-3.91 -1.5,-3.82 -1.69,-3.723 -1.85,-3.629 -2.03,-3.519 -2.18,-3.399 -2.34,-3.301 -2.49,-3.171 -2.64,-3.039 -2.78,-2.918 -2.92,-2.782 -3.04,-2.64 -3.17,-2.489 -3.3,-2.339 -3.4,-2.18 -3.52,-2.031 -3.63,-1.852 -3.72,-1.687 -3.82,-1.5 -3.91,-1.321 -3.99,-1.14 -4.06,-0.942 -4.14,-0.738 -4.21,-0.531 -4.26,-0.321 -4.17,-0.109 -760.28,0 -4.17,0.109 -4.26,0.321 -4.21,0.531 -4.14,0.738 -4.06,0.942 -3.99,1.14 -3.91,1.321 -3.82,1.5 -3.72,1.687 -3.63,1.852 -3.52,2.031 -3.4,2.18 -3.3,2.339 -3.17,2.489 -3.04,2.64 -2.92,2.782 -2.78,2.918 -2.64,3.039 -2.49,3.171 -2.34,3.301 -2.19,3.399 -2.02,3.519 -1.85,3.629 -1.69,3.723 -1.5,3.82 -1.33,3.91 -1.13,3.989 -0.94,4.058 -0.74,4.141 -0.53,4.211 -0.32,4.261 -0.11,4.168 0,291.282 0.11,4.168 z m 22.39,-4.598 0,0.289 0,-291 0,0.289 0.09,-3.75 -0.03,0.57 0.28,-3.687 -0.05,0.558 0.46,-3.64 -0.09,0.558 0.64,-3.578 -0.11,0.551 0.81,-3.519 -0.14,0.539 0.98,-3.45 -0.16,0.528 1.14,-3.379 -0.19,0.519 1.3,-3.3 -0.21,0.511 1.46,-3.218 -0.24,0.488 1.6,-3.141 -0.26,0.481 1.76,-3.039 -0.29,0.461 1.9,-2.954 -0.31,0.454 2.03,-2.864 -0.32,0.434 2.16,-2.742 -0.34,0.41 2.28,-2.641 -0.36,0.403 2.41,-2.532 -0.38,0.379 2.53,-2.41 -0.4,0.359 2.64,-2.277 -0.41,0.34 2.74,-2.16 -0.43,0.32 2.85,-2.031 -0.44,0.308 2.95,-1.898 -0.47,0.289 3.05,-1.758 -0.48,0.258 3.14,-1.598 -0.5,0.239 3.23,-1.461 -0.51,0.211 3.3,-1.301 -0.52,0.191 3.38,-1.14 -0.53,0.16 3.45,-0.981 -0.54,0.141 3.52,-0.809 -0.55,0.11 3.58,-0.641 -0.56,0.09 3.64,-0.461 -0.56,0.051 3.69,-0.281 -0.57,0.031 3.75,-0.09 -0.29,0 760,0 -0.29,0 3.75,0.09 -0.57,-0.031 3.69,0.281 -0.56,-0.051 3.64,0.461 -0.56,-0.09 3.58,0.641 -0.55,-0.11 3.52,0.809 -0.54,-0.141 3.45,0.981 -0.53,-0.16 3.38,1.14 -0.52,-0.191 3.3,1.301 -0.51,-0.211 3.22,1.461 -0.49,-0.239 3.14,1.598 -0.48,-0.258 3.04,1.758 -0.46,-0.289 2.95,1.898 -0.45,-0.308 2.86,2.031 -0.43,-0.32 2.74,2.16 -0.41,-0.34 2.64,2.277 -0.4,-0.359 2.53,2.41 -0.38,-0.379 2.41,2.532 -0.36,-0.403 2.28,2.641 -0.34,-0.41 2.16,2.742 -0.32,-0.434 2.03,2.864 -0.31,-0.454 1.9,2.954 -0.29,-0.461 1.76,3.039 -0.26,-0.481 1.6,3.141 -0.24,-0.488 1.46,3.218 -0.21,-0.511 1.3,3.3 -0.19,-0.519 1.14,3.379 -0.16,-0.528 0.98,3.45 -0.14,-0.539 0.81,3.519 -0.11,-0.551 0.64,3.578 -0.09,-0.558 0.46,3.64 -0.05,-0.558 0.28,3.687 -0.03,-0.57 0.09,3.75 0,-0.289 0,291 0,-0.289 -0.09,3.75 0.03,-0.57 -0.28,3.691 0.05,-0.562 -0.46,3.64 0.09,-0.558 -0.64,3.578 0.11,-0.551 -0.81,3.519 0.14,-0.539 -0.98,3.45 0.16,-0.528 -1.14,3.379 0.19,-0.519 -1.3,3.3 0.21,-0.511 -1.46,3.23 0.24,-0.5 -1.6,3.141 0.26,-0.481 -1.76,3.051 0.29,-0.473 -1.9,2.954 0.31,-0.454 -2.03,2.864 0.32,-0.43 -2.16,2.738 0.34,-0.41 -2.28,2.641 0.36,-0.403 -2.41,2.532 0.38,-0.379 -2.53,2.41 0.4,-0.359 -2.64,2.277 0.41,-0.34 -2.74,2.16 0.43,-0.32 -2.86,2.031 0.45,-0.308 -2.95,1.898 0.46,-0.289 -3.04,1.758 0.48,-0.258 -3.14,1.598 0.49,-0.239 -3.22,1.461 0.51,-0.211 -3.3,1.301 0.52,-0.191 -3.38,1.14 0.53,-0.16 -3.45,0.981 0.54,-0.141 -3.52,0.809 0.55,-0.11 -3.58,0.641 0.56,-0.09 -3.64,0.461 0.56,-0.051 -3.69,0.281 0.57,-0.031 -3.75,0.09 0.29,0 -760,0 0.29,0 -3.75,-0.09 0.57,0.031 -3.69,-0.281 0.56,0.051 -3.64,-0.461 0.56,0.09 -3.58,-0.641 0.55,0.11 -3.52,-0.809 0.54,0.141 -3.45,-0.981 0.53,0.16 -3.38,-1.14 0.52,0.191 -3.3,-1.301 0.51,0.211 -3.23,-1.461 0.5,0.239 -3.14,-1.598 0.48,0.258 -3.05,-1.758 0.47,0.289 -2.95,-1.898 0.44,0.308 -2.85,-2.031 0.43,0.32 -2.74,-2.16 0.41,0.34 -2.64,-2.277 0.4,0.359 -2.53,-2.41 0.38,0.379 -2.41,-2.532 0.36,0.403 -2.28,-2.641 0.34,0.41 -2.16,-2.738 0.32,0.43 -2.03,-2.864 0.31,0.454 -1.9,-2.954 0.29,0.473 -1.76,-3.051 0.26,0.481 -1.6,-3.141 0.24,0.5 -1.46,-3.23 0.21,0.511 -1.3,-3.3 0.19,0.519 -1.14,-3.379 0.16,0.528 -0.98,-3.45 0.14,0.539 -0.81,-3.519 0.11,0.551 -0.64,-3.578 0.09,0.558 -0.46,-3.64 0.05,0.562 -0.28,-3.691 0.03,0.57 -0.09,-3.75" /><g
         transform="scale(10,10)"
         id="g44"><text
           id="text46"
           style="font-variant:normal;font-weight:normal;font-size:16.10000038px;font-family:WenQuanYiMicroHei;-inkscape-font-specification:WenQuanYiMicroHei;writing-mode:lr-tb;fill:#000000;fill-opacity:1;fill-rule:nonzero;stroke:none"
           transform="matrix(1,0,0,-1,205.231,63.9191)"><tspan
             id="tspan48"
             y="0"
             x="0 8.2999916 16.849991 20.999983 29.549982 36.949974 42.349976 46.499969 55.749969">Selection</tspan><tspan
             id="tspan50"
             y="19.200001"
             x="16.700001 27.649998 37.399994">DAG</tspan></text>
</g></g></g></svg>