<?xml version="1.0" encoding="UTF-8" standalone="no"?>
<svg
   xmlns:dc="http://purl.org/dc/elements/1.1/"
   xmlns:cc="http://creativecommons.org/ns#"
   xmlns:rdf="http://www.w3.org/1999/02/22-rdf-syntax-ns#"
   xmlns:svg="http://www.w3.org/2000/svg"
   xmlns="http://www.w3.org/2000/svg"
   viewBox="0 0 789.375 299.0625"
   height="299.0625"
   width="789.375"
   xml:space="preserve"
   version="1.1"
   id="svg2"><metadata
     id="metadata8"><rdf:RDF><cc:Work
         rdf:about=""><dc:format>image/svg+xml</dc:format><dc:type
           rdf:resource="http://purl.org/dc/dcmitype/StillImage" /></cc:Work></rdf:RDF></metadata><defs
     id="defs6" /><g
     transform="matrix(1.25,0,0,-1.25,0,299.0625)"
     id="g10"><g
       transform="scale(0.1,0.1)"
       id="g12"><path
         id="path14"
         style="fill:#ffffff;fill-opacity:1;fill-rule:evenodd;stroke:none"
         d="m 0,0 7515,0 0,3577.5 -7515,0 L 0,0 Z" /><path
         id="path16"
         style="fill:#ffffff;fill-opacity:1;fill-rule:evenodd;stroke:none"
         d="m 267,1919.1 c 1,39.58 33.57,72.15 74.398,72 l 758.402,0 c 41.13,0.15 73.7,-32.42 74.4,-72 l 0,-290.4 c -0.7,-41.38 -33.27,-73.95 -74.4,-74.4 l -758.402,0 C 300.57,1554.75 268,1587.32 267,1628.7 l 0,290.4" /><path
         id="path18"
         style="fill:#000000;fill-opacity:1;fill-rule:nonzero;stroke:none"
         d="m 256.859,1922.81 0.321,4.26 0.531,4.21 0.738,4.14 0.942,4.06 1.129,3.99 1.332,3.91 1.5,3.82 1.687,3.72 1.852,3.63 2.031,3.52 2.18,3.4 2.339,3.3 2.489,3.17 2.64,3.04 2.782,2.92 2.918,2.78 3.039,2.64 3.171,2.49 3.301,2.34 3.399,2.18 3.519,2.03 3.633,1.85 3.719,1.69 3.82,1.5 3.91,1.33 3.989,1.13 4.062,0.94 4.137,0.74 4.211,0.53 4.261,0.32 4.168,0.11 760.281,0 4.17,-0.11 4.26,-0.32 4.21,-0.53 4.14,-0.74 4.06,-0.94 3.99,-1.13 3.91,-1.33 3.82,-1.5 3.72,-1.69 3.63,-1.85 3.52,-2.03 3.4,-2.18 3.3,-2.34 3.17,-2.49 3.04,-2.64 2.92,-2.78 2.78,-2.92 2.64,-3.04 2.49,-3.17 2.34,-3.3 2.18,-3.4 2.03,-3.52 1.85,-3.63 1.69,-3.72 1.5,-3.82 1.33,-3.91 1.13,-3.99 0.94,-4.06 0.74,-4.14 0.53,-4.21 0.32,-4.26 0.11,-4.17 0,-291.28 -0.11,-4.17 -0.32,-4.26 -0.53,-4.21 -0.74,-4.14 -0.94,-4.06 -1.13,-3.99 -1.33,-3.91 -1.5,-3.82 -1.69,-3.72 -1.85,-3.63 -2.03,-3.52 -2.18,-3.4 -2.34,-3.3 -2.49,-3.17 -2.64,-3.04 -2.78,-2.92 -2.92,-2.78 -3.04,-2.64 -3.17,-2.49 -3.3,-2.34 -3.4,-2.18 -3.52,-2.03 -3.63,-1.85 -3.72,-1.69 -3.82,-1.5 -3.91,-1.33 -3.99,-1.13 -4.06,-0.94 -4.14,-0.74 -4.21,-0.53 -4.26,-0.32 -4.17,-0.11 -760.281,0 -4.168,0.11 -4.261,0.32 -4.211,0.53 -4.137,0.74 -4.062,0.94 -3.989,1.13 -3.91,1.33 -3.82,1.5 -3.719,1.69 -3.633,1.85 -3.519,2.03 -3.399,2.18 -3.301,2.34 -3.171,2.49 -3.039,2.64 -2.918,2.78 -2.782,2.92 -2.64,3.04 -2.489,3.17 -2.339,3.3 -2.18,3.4 -2.031,3.52 -1.852,3.63 -1.687,3.72 -1.5,3.82 -1.332,3.91 -1.129,3.99 -0.942,4.06 -0.738,4.14 -0.531,4.21 -0.321,4.26 -0.109,4.17 0,291.28 0.109,4.17 z m 22.391,-4.6 0,0.29 0,-291 0,0.29 0.09,-3.75 -0.031,0.57 0.281,-3.69 -0.051,0.56 0.461,-3.64 -0.09,0.56 0.641,-3.58 -0.11,0.55 0.809,-3.52 -0.141,0.54 0.981,-3.45 -0.16,0.53 1.14,-3.38 -0.191,0.52 1.301,-3.3 -0.211,0.51 1.461,-3.22 -0.239,0.49 1.598,-3.14 -0.258,0.48 1.758,-3.05 -0.289,0.47 1.898,-2.95 -0.308,0.45 2.031,-2.86 -0.32,0.43 2.16,-2.74 -0.34,0.41 2.277,-2.64 -0.359,0.4 2.41,-2.53 -0.379,0.38 2.532,-2.41 -0.403,0.36 2.641,-2.28 -0.41,0.34 2.742,-2.16 -0.434,0.32 2.864,-2.03 -0.454,0.31 2.954,-1.9 -0.473,0.29 3.051,-1.76 -0.481,0.26 3.141,-1.6 -0.488,0.24 3.218,-1.46 -0.511,0.21 3.3,-1.3 -0.519,0.19 3.379,-1.14 -0.528,0.16 3.45,-0.98 -0.539,0.14 3.519,-0.81 -0.551,0.11 3.578,-0.64 -0.558,0.09 3.64,-0.46 -0.558,0.05 3.687,-0.28 -0.57,0.03 3.75,-0.09 -0.289,0 760,0 -0.29,0 3.75,0.09 -0.57,-0.03 3.69,0.28 -0.56,-0.05 3.64,0.46 -0.56,-0.09 3.58,0.64 -0.55,-0.11 3.52,0.81 -0.54,-0.14 3.45,0.98 -0.53,-0.16 3.38,1.14 -0.52,-0.19 3.3,1.3 -0.51,-0.21 3.23,1.46 -0.5,-0.24 3.14,1.6 -0.48,-0.26 3.04,1.76 -0.46,-0.29 2.95,1.9 -0.45,-0.31 2.86,2.03 -0.43,-0.32 2.74,2.16 -0.41,-0.34 2.64,2.28 -0.4,-0.36 2.53,2.41 -0.38,-0.38 2.41,2.53 -0.36,-0.4 2.28,2.64 -0.34,-0.41 2.16,2.74 -0.32,-0.43 2.03,2.86 -0.31,-0.45 1.9,2.95 -0.29,-0.47 1.76,3.05 -0.26,-0.48 1.6,3.14 -0.24,-0.49 1.46,3.22 -0.21,-0.51 1.3,3.3 -0.19,-0.52 1.14,3.38 -0.16,-0.53 0.98,3.45 -0.14,-0.54 0.81,3.52 -0.11,-0.55 0.64,3.58 -0.09,-0.56 0.46,3.64 -0.05,-0.56 0.28,3.69 -0.03,-0.57 0.09,3.75 0,-0.29 0,291 0,-0.29 -0.09,3.75 0.03,-0.57 -0.28,3.69 0.05,-0.56 -0.46,3.64 0.09,-0.56 -0.64,3.58 0.11,-0.55 -0.81,3.52 0.14,-0.54 -0.98,3.45 0.16,-0.53 -1.14,3.38 0.19,-0.52 -1.3,3.3 0.21,-0.51 -1.46,3.22 0.24,-0.49 -1.6,3.14 0.26,-0.48 -1.76,3.05 0.29,-0.47 -1.9,2.95 0.31,-0.45 -2.03,2.86 0.32,-0.43 -2.16,2.74 0.34,-0.41 -2.28,2.64 0.36,-0.4 -2.41,2.53 0.38,-0.38 -2.53,2.41 0.4,-0.36 -2.64,2.28 0.41,-0.34 -2.74,2.16 0.43,-0.32 -2.86,2.03 0.45,-0.31 -2.95,1.9 0.46,-0.29 -3.04,1.76 0.48,-0.26 -3.14,1.6 0.5,-0.24 -3.23,1.46 0.51,-0.21 -3.3,1.3 0.52,-0.19 -3.38,1.14 0.53,-0.16 -3.45,0.98 0.54,-0.14 -3.52,0.81 0.55,-0.11 -3.58,0.64 0.56,-0.09 -3.64,0.46 0.56,-0.05 -3.69,0.28 0.57,-0.03 -3.75,0.09 0.29,0 -760,0 0.289,0 -3.75,-0.09 0.57,0.03 -3.687,-0.28 0.558,0.05 -3.64,-0.46 0.558,0.09 -3.578,-0.64 0.551,0.11 -3.519,-0.81 0.539,0.14 -3.45,-0.98 0.528,0.16 -3.379,-1.14 0.519,0.19 -3.3,-1.3 0.511,0.21 -3.218,-1.46 0.488,0.24 -3.141,-1.6 0.481,0.26 -3.051,-1.76 0.473,0.29 -2.954,-1.9 0.454,0.31 -2.864,-2.03 0.434,0.32 -2.742,-2.16 0.41,0.34 -2.641,-2.28 0.403,0.36 -2.532,-2.41 0.379,0.38 -2.41,-2.53 0.359,0.4 -2.277,-2.64 0.34,0.41 -2.16,-2.74 0.32,0.43 -2.031,-2.86 0.308,0.45 -1.898,-2.95 0.289,0.47 -1.758,-3.05 0.258,0.48 -1.598,-3.14 0.239,0.49 -1.461,-3.22 0.211,0.51 -1.301,-3.3 0.191,0.52 -1.14,-3.38 0.16,0.53 -0.981,-3.45 0.141,0.54 -0.809,-3.52 0.11,0.55 -0.641,-3.58 0.09,0.56 -0.461,-3.64 0.051,0.56 -0.281,-3.69 0.031,0.57 -0.09,-3.75" /><g
         transform="scale(10,10)"
         id="g20"><text
           id="text22"
           style="font-variant:normal;font-weight:normal;font-size:16.10000038px;font-family:WenQuanYiMicroHei;-inkscape-font-specification:WenQuanYiMicroHei;writing-mode:lr-tb;fill:#000000;fill-opacity:1;fill-rule:nonzero;stroke:none"
           transform="matrix(1,0,0,-1,47.3809,181.644)"><tspan
             id="tspan24"
             y="0"
             x="0 8.2999983 17.550001 26.949997 33.349998 40.749996 49.299995">Source </tspan><tspan
             id="tspan26"
             y="19.200001"
             x="6.25 15.9 25.150002 34.550003">Code</tspan></text>
</g><path
         id="path28"
         style="fill:#ffffff;fill-opacity:1;fill-rule:evenodd;stroke:none"
         d="m 1443,1919.1 c 0.5,39.58 33.07,72.15 74.4,72 l 758.4,0 c 40.63,0.15 73.2,-32.42 74.4,-72 l 0,-290.4 c -1.2,-41.38 -33.77,-73.95 -74.4,-74.4 l -758.4,0 c -41.33,0.45 -73.9,33.02 -74.4,74.4 l 0,290.4" /><path
         id="path30"
         style="fill:#000000;fill-opacity:1;fill-rule:nonzero;stroke:none"
         d="m 1432.36,1922.81 0.32,4.26 0.53,4.21 0.74,4.14 0.94,4.06 1.13,3.99 1.33,3.91 1.5,3.82 1.69,3.72 1.85,3.63 2.02,3.52 2.19,3.4 2.34,3.3 2.49,3.17 2.64,3.04 2.78,2.92 2.92,2.78 3.04,2.64 3.17,2.49 3.3,2.34 3.4,2.18 3.52,2.03 3.63,1.85 3.72,1.69 3.82,1.5 3.91,1.33 3.99,1.13 4.06,0.94 4.14,0.74 4.21,0.53 4.26,0.32 4.17,0.11 760.28,0 4.17,-0.11 4.26,-0.32 4.21,-0.53 4.14,-0.74 4.06,-0.94 3.99,-1.13 3.91,-1.33 3.82,-1.5 3.72,-1.69 3.63,-1.85 3.52,-2.03 3.4,-2.18 3.3,-2.34 3.17,-2.49 3.04,-2.64 2.92,-2.78 2.78,-2.92 2.64,-3.04 2.49,-3.17 2.34,-3.3 2.19,-3.4 2.02,-3.52 1.85,-3.63 1.69,-3.72 1.5,-3.82 1.33,-3.91 1.13,-3.99 0.94,-4.06 0.74,-4.14 0.53,-4.21 0.32,-4.26 0.11,-4.17 0,-291.28 -0.11,-4.17 -0.32,-4.26 -0.53,-4.21 -0.74,-4.14 -0.94,-4.06 -1.13,-3.99 -1.33,-3.91 -1.5,-3.82 -1.69,-3.72 -1.85,-3.63 -2.02,-3.52 -2.19,-3.4 -2.34,-3.3 -2.49,-3.17 -2.64,-3.04 -2.78,-2.92 -2.92,-2.78 -3.04,-2.64 -3.17,-2.49 -3.3,-2.34 -3.4,-2.18 -3.52,-2.03 -3.63,-1.85 -3.72,-1.69 -3.82,-1.5 -3.91,-1.33 -3.99,-1.13 -4.06,-0.94 -4.14,-0.74 -4.21,-0.53 -4.26,-0.32 -4.17,-0.11 -760.28,0 -4.17,0.11 -4.26,0.32 -4.21,0.53 -4.14,0.74 -4.06,0.94 -3.99,1.13 -3.91,1.33 -3.82,1.5 -3.72,1.69 -3.63,1.85 -3.52,2.03 -3.4,2.18 -3.3,2.34 -3.17,2.49 -3.04,2.64 -2.92,2.78 -2.78,2.92 -2.64,3.04 -2.49,3.17 -2.34,3.3 -2.19,3.4 -2.02,3.52 -1.85,3.63 -1.69,3.72 -1.5,3.82 -1.33,3.91 -1.13,3.99 -0.94,4.06 -0.74,4.14 -0.53,4.21 -0.32,4.26 -0.11,4.17 0,291.28 0.11,4.17 z m 22.39,-4.6 0,0.29 0,-291 0,0.29 0.09,-3.75 -0.03,0.57 0.28,-3.69 -0.05,0.56 0.46,-3.64 -0.09,0.56 0.64,-3.58 -0.11,0.55 0.81,-3.52 -0.14,0.54 0.98,-3.45 -0.16,0.53 1.14,-3.38 -0.19,0.52 1.3,-3.3 -0.21,0.51 1.46,-3.22 -0.24,0.49 1.6,-3.14 -0.26,0.48 1.76,-3.05 -0.29,0.47 1.9,-2.95 -0.31,0.45 2.03,-2.86 -0.32,0.43 2.16,-2.74 -0.34,0.41 2.28,-2.64 -0.36,0.4 2.41,-2.53 -0.38,0.38 2.53,-2.41 -0.4,0.36 2.64,-2.28 -0.41,0.34 2.74,-2.16 -0.43,0.32 2.86,-2.03 -0.45,0.31 2.95,-1.9 -0.47,0.29 3.05,-1.76 -0.48,0.26 3.14,-1.6 -0.49,0.24 3.22,-1.46 -0.51,0.21 3.3,-1.3 -0.52,0.19 3.38,-1.14 -0.53,0.16 3.45,-0.98 -0.54,0.14 3.52,-0.81 -0.55,0.11 3.58,-0.64 -0.56,0.09 3.64,-0.46 -0.56,0.05 3.69,-0.28 -0.57,0.03 3.75,-0.09 -0.29,0 760,0 -0.29,0 3.75,0.09 -0.57,-0.03 3.69,0.28 -0.56,-0.05 3.64,0.46 -0.56,-0.09 3.58,0.64 -0.55,-0.11 3.52,0.81 -0.54,-0.14 3.45,0.98 -0.53,-0.16 3.38,1.14 -0.52,-0.19 3.3,1.3 -0.51,-0.21 3.22,1.46 -0.49,-0.24 3.14,1.6 -0.48,-0.26 3.05,1.76 -0.47,-0.29 2.95,1.9 -0.45,-0.31 2.86,2.03 -0.43,-0.32 2.74,2.16 -0.41,-0.34 2.64,2.28 -0.4,-0.36 2.53,2.41 -0.38,-0.38 2.41,2.53 -0.36,-0.4 2.28,2.64 -0.34,-0.41 2.16,2.74 -0.32,-0.43 2.03,2.86 -0.31,-0.45 1.9,2.95 -0.29,-0.47 1.76,3.05 -0.26,-0.48 1.6,3.14 -0.24,-0.49 1.46,3.22 -0.21,-0.51 1.3,3.3 -0.19,-0.52 1.14,3.38 -0.16,-0.53 0.98,3.45 -0.14,-0.54 0.81,3.52 -0.11,-0.55 0.64,3.58 -0.09,-0.56 0.46,3.64 -0.05,-0.56 0.28,3.69 -0.03,-0.57 0.09,3.75 0,-0.29 0,291 0,-0.29 -0.09,3.75 0.03,-0.57 -0.28,3.69 0.05,-0.56 -0.46,3.64 0.09,-0.56 -0.64,3.58 0.11,-0.55 -0.81,3.52 0.14,-0.54 -0.98,3.45 0.16,-0.53 -1.14,3.38 0.19,-0.52 -1.3,3.3 0.21,-0.51 -1.46,3.22 0.24,-0.49 -1.6,3.14 0.26,-0.48 -1.76,3.05 0.29,-0.47 -1.9,2.95 0.31,-0.45 -2.03,2.86 0.32,-0.43 -2.16,2.74 0.34,-0.41 -2.28,2.64 0.36,-0.4 -2.41,2.53 0.38,-0.38 -2.53,2.41 0.4,-0.36 -2.64,2.28 0.41,-0.34 -2.74,2.16 0.43,-0.32 -2.86,2.03 0.45,-0.31 -2.95,1.9 0.47,-0.29 -3.05,1.76 0.48,-0.26 -3.14,1.6 0.49,-0.24 -3.22,1.46 0.51,-0.21 -3.3,1.3 0.52,-0.19 -3.38,1.14 0.53,-0.16 -3.45,0.98 0.54,-0.14 -3.52,0.81 0.55,-0.11 -3.58,0.64 0.56,-0.09 -3.64,0.46 0.56,-0.05 -3.69,0.28 0.57,-0.03 -3.75,0.09 0.29,0 -760,0 0.29,0 -3.75,-0.09 0.57,0.03 -3.69,-0.28 0.56,0.05 -3.64,-0.46 0.56,0.09 -3.58,-0.64 0.55,0.11 -3.52,-0.81 0.54,0.14 -3.45,-0.98 0.53,0.16 -3.38,-1.14 0.52,0.19 -3.3,-1.3 0.51,0.21 -3.22,-1.46 0.49,0.24 -3.14,-1.6 0.48,0.26 -3.05,-1.76 0.47,0.29 -2.95,-1.9 0.45,0.31 -2.86,-2.03 0.43,0.32 -2.74,-2.16 0.41,0.34 -2.64,-2.28 0.4,0.36 -2.53,-2.41 0.38,0.38 -2.41,-2.53 0.36,0.4 -2.28,-2.64 0.34,0.41 -2.16,-2.74 0.32,0.43 -2.03,-2.86 0.31,0.45 -1.9,-2.95 0.29,0.47 -1.76,-3.05 0.26,0.48 -1.6,-3.14 0.24,0.49 -1.46,-3.22 0.21,0.51 -1.3,-3.3 0.19,0.52 -1.14,-3.38 0.16,0.53 -0.98,-3.45 0.14,0.54 -0.81,-3.52 0.11,0.55 -0.64,-3.58 0.09,0.56 -0.46,-3.64 0.05,0.56 -0.28,-3.69 0.03,0.57 -0.09,-3.75" /><g
         transform="scale(10,10)"
         id="g32"><text
           id="text34"
           style="font-variant:normal;font-weight:normal;font-size:16.10000038px;font-family:WenQuanYiMicroHei;-inkscape-font-specification:WenQuanYiMicroHei;writing-mode:lr-tb;fill:#000000;fill-opacity:1;fill-rule:nonzero;stroke:none"
           transform="matrix(1,0,0,-1,156.781,172.094)"><tspan
             id="tspan36"
             y="0"
             x="0 7.8499975 14.249997 23.5 32.900002 38.300007 46.850006 56.250008">Frontend</tspan></text>
</g><path
         id="path38"
         style="fill:#ffffff;fill-opacity:1;fill-rule:evenodd;stroke:none"
         d="m 1205.4,812.699 c 0.6,41.231 33.17,73.801 74.4,74.403 l 396,0 c 40.13,-0.602 72.7,-33.172 72,-74.403 l 0,-290.398 c 0.7,-39.731 -31.87,-72.301 -72,-72 l -396,0 c -41.23,-0.301 -73.8,32.269 -74.4,72 l 0,290.398" /><path
         id="path40"
         style="fill:#000000;fill-opacity:1;fill-rule:nonzero;stroke:none"
         d="m 1194.86,818.059 0.32,4.261 0.53,4.211 0.74,4.141 0.94,4.058 1.13,3.989 1.33,3.91 1.5,3.82 1.69,3.723 1.85,3.629 2.02,3.519 2.19,3.399 2.34,3.301 2.49,3.171 2.64,3.039 2.78,2.918 2.92,2.782 3.04,2.64 3.17,2.489 3.3,2.339 3.4,2.192 3.52,2.019 3.63,1.852 3.72,1.687 3.82,1.5 3.91,1.332 3.99,1.129 4.06,0.942 4.14,0.738 4.21,0.531 4.26,0.321 4.17,0.109 397.28,0 4.17,-0.109 4.26,-0.321 4.21,-0.531 4.14,-0.738 4.06,-0.942 3.99,-1.129 3.91,-1.332 3.82,-1.5 3.72,-1.687 3.63,-1.852 3.52,-2.019 3.4,-2.192 3.3,-2.339 3.17,-2.489 3.04,-2.64 2.92,-2.782 2.78,-2.918 2.64,-3.039 2.49,-3.171 2.34,-3.301 2.18,-3.399 2.03,-3.519 1.85,-3.629 1.69,-3.723 1.5,-3.82 1.33,-3.91 1.13,-3.989 0.94,-4.058 0.74,-4.141 0.53,-4.211 0.32,-4.261 0.11,-4.168 0,-291.282 -0.11,-4.168 -0.32,-4.261 -0.53,-4.211 -0.74,-4.137 -0.94,-4.062 -1.13,-3.989 -1.33,-3.91 -1.5,-3.82 -1.69,-3.719 -1.85,-3.633 -2.03,-3.519 -2.18,-3.399 -2.34,-3.301 -2.49,-3.171 -2.64,-3.039 -2.78,-2.918 -2.92,-2.782 -3.04,-2.64 -3.17,-2.489 -3.3,-2.339 -3.4,-2.192 -3.52,-2.019 -3.63,-1.852 -3.72,-1.687 -3.82,-1.5 -3.91,-1.332 -3.99,-1.129 -4.06,-0.942 -4.14,-0.738 -4.21,-0.531 -4.26,-0.321 -4.17,-0.109 -397.28,0 -4.17,0.109 -4.26,0.321 -4.21,0.531 -4.14,0.738 -4.06,0.942 -3.99,1.129 -3.91,1.332 -3.82,1.5 -3.72,1.687 -3.63,1.852 -3.52,2.019 -3.4,2.192 -3.3,2.339 -3.17,2.489 -3.04,2.64 -2.92,2.782 -2.78,2.918 -2.64,3.039 -2.49,3.171 -2.34,3.301 -2.19,3.399 -2.02,3.519 -1.85,3.633 -1.69,3.719 -1.5,3.82 -1.33,3.91 -1.13,3.989 -0.94,4.062 -0.74,4.137 -0.53,4.211 -0.32,4.261 -0.11,4.168 0,291.282 0.11,4.168 z m 22.39,-4.598 0,0.289 0,-291 0,0.289 0.09,-3.75 -0.03,0.57 0.28,-3.687 -0.05,0.558 0.46,-3.64 -0.09,0.558 0.64,-3.578 -0.11,0.551 0.81,-3.519 -0.14,0.539 0.98,-3.45 -0.16,0.528 1.14,-3.379 -0.19,0.519 1.3,-3.3 -0.21,0.511 1.46,-3.218 -0.24,0.488 1.6,-3.141 -0.26,0.481 1.76,-3.051 -0.29,0.473 1.9,-2.954 -0.31,0.442 2.03,-2.852 -0.32,0.434 2.16,-2.742 -0.34,0.41 2.28,-2.641 -0.36,0.403 2.41,-2.532 -0.38,0.379 2.53,-2.41 -0.4,0.359 2.64,-2.277 -0.41,0.34 2.74,-2.16 -0.43,0.32 2.86,-2.031 -0.45,0.308 2.95,-1.898 -0.47,0.289 3.05,-1.758 -0.48,0.258 3.14,-1.598 -0.49,0.239 3.22,-1.461 -0.51,0.211 3.3,-1.301 -0.52,0.191 3.38,-1.14 -0.53,0.16 3.45,-0.981 -0.54,0.141 3.52,-0.809 -0.55,0.11 3.58,-0.641 -0.56,0.09 3.64,-0.461 -0.56,0.051 3.69,-0.281 -0.57,0.031 3.75,-0.09 -0.29,0 397,0 -0.29,0 3.75,0.09 -0.57,-0.031 3.69,0.281 -0.56,-0.051 3.64,0.461 -0.56,-0.09 3.58,0.641 -0.55,-0.11 3.52,0.809 -0.54,-0.141 3.45,0.981 -0.53,-0.16 3.38,1.14 -0.52,-0.191 3.3,1.301 -0.51,-0.211 3.23,1.461 -0.5,-0.239 3.14,1.598 -0.48,-0.258 3.04,1.758 -0.46,-0.289 2.95,1.898 -0.45,-0.308 2.86,2.031 -0.43,-0.32 2.74,2.16 -0.41,-0.34 2.64,2.277 -0.4,-0.359 2.53,2.41 -0.38,-0.379 2.41,2.532 -0.36,-0.403 2.28,2.641 -0.34,-0.41 2.16,2.742 -0.32,-0.434 2.03,2.852 -0.31,-0.442 1.9,2.954 -0.29,-0.473 1.76,3.051 -0.26,-0.481 1.6,3.141 -0.24,-0.488 1.46,3.218 -0.21,-0.511 1.3,3.3 -0.19,-0.519 1.14,3.379 -0.16,-0.528 0.98,3.45 -0.14,-0.539 0.81,3.519 -0.11,-0.551 0.64,3.578 -0.09,-0.558 0.46,3.64 -0.05,-0.558 0.28,3.687 -0.03,-0.57 0.09,3.75 0,-0.289 0,291 0,-0.289 -0.09,3.75 0.03,-0.57 -0.28,3.687 0.05,-0.558 -0.46,3.64 0.09,-0.558 -0.64,3.578 0.11,-0.551 -0.81,3.519 0.14,-0.539 -0.98,3.45 0.16,-0.528 -1.14,3.379 0.19,-0.519 -1.3,3.3 0.21,-0.511 -1.46,3.218 0.24,-0.488 -1.6,3.141 0.26,-0.481 -1.76,3.051 0.29,-0.473 -1.9,2.954 0.31,-0.454 -2.03,2.864 0.32,-0.434 -2.16,2.742 0.34,-0.41 -2.28,2.641 0.36,-0.403 -2.41,2.532 0.38,-0.379 -2.53,2.41 0.4,-0.359 -2.64,2.277 0.41,-0.34 -2.74,2.16 0.43,-0.32 -2.86,2.031 0.45,-0.308 -2.95,1.898 0.46,-0.289 -3.04,1.758 0.48,-0.258 -3.14,1.598 0.5,-0.239 -3.23,1.461 0.51,-0.211 -3.3,1.301 0.52,-0.191 -3.38,1.14 0.53,-0.16 -3.45,0.981 0.54,-0.141 -3.52,0.809 0.55,-0.11 -3.58,0.641 0.56,-0.09 -3.64,0.461 0.56,-0.051 -3.69,0.281 0.57,-0.031 -3.75,0.09 0.29,0 -397,0 0.29,0 -3.75,-0.09 0.57,0.031 -3.69,-0.281 0.56,0.051 -3.64,-0.461 0.56,0.09 -3.58,-0.641 0.55,0.11 -3.52,-0.809 0.54,0.141 -3.45,-0.981 0.53,0.16 -3.38,-1.14 0.52,0.191 -3.3,-1.301 0.51,0.211 -3.22,-1.461 0.49,0.239 -3.14,-1.598 0.48,0.258 -3.05,-1.758 0.47,0.289 -2.95,-1.898 0.45,0.308 -2.86,-2.031 0.43,0.32 -2.74,-2.16 0.41,0.34 -2.64,-2.277 0.4,0.359 -2.53,-2.41 0.38,0.379 -2.41,-2.532 0.36,0.403 -2.28,-2.641 0.34,0.41 -2.16,-2.742 0.32,0.434 -2.03,-2.864 0.31,0.454 -1.9,-2.954 0.29,0.473 -1.76,-3.051 0.26,0.481 -1.6,-3.141 0.24,0.488 -1.46,-3.218 0.21,0.511 -1.3,-3.3 0.19,0.519 -1.14,-3.379 0.16,0.528 -0.98,-3.45 0.14,0.539 -0.81,-3.519 0.11,0.551 -0.64,-3.578 0.09,0.558 -0.46,-3.64 0.05,0.558 -0.28,-3.687 0.03,0.57 -0.09,-3.75" /><g
         transform="scale(10,10)"
         id="g42"><text
           id="text44"
           style="font-variant:normal;font-weight:normal;font-size:16.10000038px;font-family:WenQuanYiMicroHei;-inkscape-font-specification:WenQuanYiMicroHei;writing-mode:lr-tb;fill:#000000;fill-opacity:1;fill-rule:nonzero;stroke:none"
           transform="matrix(1,0,0,-1,140.281,61.6191)"><tspan
             id="tspan46"
             y="0"
             x="0 5.400003">IR</tspan></text>
</g><path
         id="path48"
         style="fill:#000000;fill-opacity:1;fill-rule:nonzero;stroke:none"
         d="m 1348,1743.34 67.5,39.38 0,-19.44 -67.5,39.38 -1.89,1.39 -1.57,1.75 -1.16,2.05 -0.72,2.24 -0.24,2.34 0.26,2.33 0.74,2.24 1.18,2.03 1.58,1.74 1.91,1.37 2.15,0.95 2.31,0.48 2.35,-0.01 2.3,-0.5 2.14,-0.97 84.16,-49.09 -84.16,-49.09 -2.14,-0.97 -2.3,-0.5 -2.35,-0.01 -2.31,0.48 -2.15,0.95 -1.91,1.37 -1.58,1.74 -1.18,2.03 -0.74,2.24 -0.26,2.33 0.24,2.34 0.72,2.24 1.16,2.05 1.57,1.75 1.89,1.39 z m -174.5,40.91 247.67,0 0,-22.5 -247.67,0 0,22.5" /><path
         id="path50"
         style="fill:#ffffff;fill-opacity:1;fill-rule:evenodd;stroke:none"
         d="m 3991.8,1919.1 c -0.3,39.58 32.27,72.15 72,72 l 760.8,0 c 39.83,0.15 72.4,-32.42 72,-72 l 0,-290.4 c 0.4,-41.38 -32.17,-73.95 -72,-74.4 l -760.8,0 c -39.73,0.45 -72.3,33.02 -72,74.4 l 0,290.4" /><path
         id="path52"
         style="fill:#000000;fill-opacity:1;fill-rule:nonzero;stroke:none"
         d="m 3980.36,1922.81 0.32,4.26 0.53,4.21 0.74,4.14 0.94,4.06 1.13,3.99 1.33,3.91 1.5,3.82 1.69,3.72 1.85,3.63 2.02,3.52 2.19,3.4 2.34,3.3 2.49,3.17 2.64,3.04 2.78,2.92 2.92,2.78 3.04,2.64 3.17,2.49 3.3,2.34 3.4,2.18 3.52,2.03 3.63,1.85 3.72,1.69 3.82,1.5 3.91,1.33 3.99,1.13 4.06,0.94 4.14,0.74 4.21,0.53 4.26,0.32 4.17,0.11 760.28,0 4.17,-0.11 4.26,-0.32 4.21,-0.53 4.14,-0.74 4.06,-0.94 3.99,-1.13 3.91,-1.33 3.82,-1.5 3.72,-1.69 3.63,-1.85 3.52,-2.03 3.4,-2.18 3.3,-2.34 3.17,-2.49 3.04,-2.64 2.92,-2.78 2.78,-2.92 2.64,-3.04 2.49,-3.17 2.34,-3.3 2.18,-3.4 2.03,-3.52 1.85,-3.63 1.69,-3.72 1.5,-3.82 1.32,-3.91 1.14,-3.99 0.94,-4.06 0.74,-4.14 0.53,-4.21 0.32,-4.26 0.11,-4.17 0,-291.28 -0.11,-4.17 -0.32,-4.26 -0.53,-4.21 -0.74,-4.14 -0.94,-4.06 -1.14,-3.99 -1.32,-3.91 -1.5,-3.82 -1.69,-3.72 -1.85,-3.63 -2.03,-3.52 -2.18,-3.4 -2.34,-3.3 -2.49,-3.17 -2.64,-3.04 -2.78,-2.92 -2.92,-2.78 -3.04,-2.64 -3.17,-2.49 -3.3,-2.34 -3.4,-2.18 -3.52,-2.03 -3.63,-1.85 -3.72,-1.69 -3.82,-1.5 -3.91,-1.33 -3.99,-1.13 -4.06,-0.94 -4.14,-0.74 -4.21,-0.53 -4.26,-0.32 -4.17,-0.11 -760.28,0 -4.17,0.11 -4.26,0.32 -4.21,0.53 -4.14,0.74 -4.06,0.94 -3.99,1.13 -3.91,1.33 -3.82,1.5 -3.72,1.69 -3.63,1.85 -3.52,2.03 -3.4,2.18 -3.3,2.34 -3.17,2.49 -3.04,2.64 -2.92,2.78 -2.78,2.92 -2.64,3.04 -2.49,3.17 -2.34,3.3 -2.19,3.4 -2.02,3.52 -1.85,3.63 -1.69,3.72 -1.5,3.82 -1.33,3.91 -1.13,3.99 -0.94,4.06 -0.74,4.14 -0.53,4.21 -0.32,4.26 -0.11,4.17 0,291.28 0.11,4.17 z m 22.39,-4.6 0,0.29 0,-291 0,0.29 0.09,-3.75 -0.03,0.57 0.28,-3.69 -0.05,0.56 0.46,-3.64 -0.09,0.56 0.64,-3.58 -0.11,0.55 0.81,-3.52 -0.14,0.54 0.98,-3.45 -0.16,0.53 1.14,-3.38 -0.19,0.52 1.3,-3.3 -0.21,0.51 1.45,-3.22 -0.23,0.49 1.6,-3.14 -0.26,0.48 1.75,-3.05 -0.28,0.47 1.9,-2.95 -0.31,0.45 2.03,-2.86 -0.32,0.43 2.16,-2.74 -0.34,0.41 2.28,-2.64 -0.36,0.4 2.41,-2.53 -0.38,0.38 2.53,-2.41 -0.4,0.36 2.64,-2.28 -0.41,0.34 2.74,-2.16 -0.43,0.32 2.85,-2.03 -0.44,0.31 2.95,-1.9 -0.47,0.29 3.05,-1.76 -0.48,0.26 3.14,-1.6 -0.5,0.24 3.23,-1.46 -0.51,0.21 3.3,-1.3 -0.52,0.19 3.38,-1.14 -0.53,0.16 3.45,-0.98 -0.54,0.14 3.52,-0.81 -0.55,0.11 3.58,-0.64 -0.56,0.09 3.64,-0.46 -0.56,0.05 3.69,-0.28 -0.57,0.03 3.75,-0.09 -0.29,0 760,0 -0.29,0 3.75,0.09 -0.57,-0.03 3.69,0.28 -0.56,-0.05 3.64,0.46 -0.56,-0.09 3.58,0.64 -0.55,-0.11 3.52,0.81 -0.54,-0.14 3.45,0.98 -0.53,-0.16 3.38,1.14 -0.52,-0.19 3.3,1.3 -0.51,-0.21 3.22,1.46 -0.49,-0.24 3.14,1.6 -0.48,-0.26 3.04,1.76 -0.46,-0.29 2.95,1.9 -0.45,-0.31 2.86,2.03 -0.43,-0.32 2.74,2.16 -0.41,-0.34 2.64,2.28 -0.4,-0.36 2.53,2.41 -0.38,-0.38 2.41,2.53 -0.36,-0.4 2.28,2.64 -0.34,-0.41 2.16,2.74 -0.32,-0.43 2.03,2.86 -0.31,-0.45 1.9,2.95 -0.29,-0.47 1.76,3.05 -0.26,-0.48 1.6,3.14 -0.24,-0.49 1.46,3.22 -0.21,-0.51 1.3,3.3 -0.19,-0.52 1.14,3.38 -0.16,-0.53 0.98,3.45 -0.14,-0.54 0.81,3.52 -0.11,-0.55 0.64,3.58 -0.09,-0.56 0.46,3.64 -0.05,-0.56 0.28,3.69 -0.03,-0.57 0.09,3.75 0,-0.29 0,291 0,-0.29 -0.09,3.75 0.03,-0.57 -0.28,3.69 0.05,-0.56 -0.46,3.64 0.09,-0.56 -0.64,3.58 0.11,-0.55 -0.81,3.52 0.14,-0.54 -0.98,3.45 0.16,-0.53 -1.14,3.38 0.19,-0.52 -1.3,3.3 0.21,-0.51 -1.46,3.22 0.24,-0.49 -1.6,3.14 0.26,-0.48 -1.76,3.05 0.29,-0.47 -1.9,2.95 0.31,-0.45 -2.03,2.86 0.32,-0.43 -2.16,2.74 0.34,-0.41 -2.28,2.64 0.36,-0.4 -2.41,2.53 0.38,-0.38 -2.53,2.41 0.4,-0.36 -2.64,2.28 0.41,-0.34 -2.74,2.16 0.43,-0.32 -2.86,2.03 0.45,-0.31 -2.95,1.9 0.46,-0.29 -3.04,1.76 0.48,-0.26 -3.14,1.6 0.49,-0.24 -3.22,1.46 0.51,-0.21 -3.3,1.3 0.52,-0.19 -3.38,1.14 0.53,-0.16 -3.45,0.98 0.54,-0.14 -3.52,0.81 0.55,-0.11 -3.58,0.64 0.56,-0.09 -3.64,0.46 0.56,-0.05 -3.69,0.28 0.57,-0.03 -3.75,0.09 0.29,0 -760,0 0.29,0 -3.75,-0.09 0.57,0.03 -3.69,-0.28 0.56,0.05 -3.64,-0.46 0.56,0.09 -3.58,-0.64 0.55,0.11 -3.52,-0.81 0.54,0.14 -3.45,-0.98 0.53,0.16 -3.38,-1.14 0.52,0.19 -3.3,-1.3 0.51,0.21 -3.23,-1.46 0.5,0.24 -3.14,-1.6 0.48,0.26 -3.05,-1.76 0.47,0.29 -2.95,-1.9 0.44,0.31 -2.85,-2.03 0.43,0.32 -2.74,-2.16 0.41,0.34 -2.64,-2.28 0.4,0.36 -2.53,-2.41 0.38,0.38 -2.41,-2.53 0.36,0.4 -2.28,-2.64 0.34,0.41 -2.16,-2.74 0.32,0.43 -2.03,-2.86 0.31,0.45 -1.9,-2.95 0.28,0.47 -1.75,-3.05 0.26,0.48 -1.6,-3.14 0.23,0.49 -1.45,-3.22 0.21,0.51 -1.3,-3.3 0.19,0.52 -1.14,-3.38 0.16,0.53 -0.98,-3.45 0.14,0.54 -0.81,-3.52 0.11,0.55 -0.64,-3.58 0.09,0.56 -0.46,-3.64 0.05,0.56 -0.28,-3.69 0.03,0.57 -0.09,-3.75" /><g
         transform="scale(10,10)"
         id="g54"><text
           id="text56"
           style="font-variant:normal;font-weight:normal;font-size:16.10000038px;font-family:WenQuanYiMicroHei;-inkscape-font-specification:WenQuanYiMicroHei;writing-mode:lr-tb;fill:#000000;fill-opacity:1;fill-rule:nonzero;stroke:none"
           transform="matrix(1,0,0,-1,413.831,172.094)"><tspan
             id="tspan58"
             y="0"
             x="0 9.9500046 18.449997 25.850403 33.800407 42.35043 51.750435">Backend</tspan></text>
</g><path
         id="path60"
         style="fill:#ffffff;fill-opacity:1;fill-rule:evenodd;stroke:none"
         d="m 5167.8,1919.1 c -0.8,39.58 31.77,72.15 72,72 l 760.8,0 c 39.33,0.15 71.9,-32.42 72,-72 l 0,-290.4 c -0.1,-41.38 -32.67,-73.95 -72,-74.4 l -760.8,0 c -40.23,0.45 -72.8,33.02 -72,74.4 l 0,290.4" /><path
         id="path62"
         style="fill:#000000;fill-opacity:1;fill-rule:nonzero;stroke:none"
         d="m 5155.86,1922.81 0.32,4.26 0.53,4.21 0.74,4.14 0.94,4.06 1.14,3.99 1.32,3.91 1.5,3.82 1.69,3.72 1.85,3.63 2.03,3.52 2.18,3.4 2.34,3.3 2.49,3.17 2.64,3.04 2.78,2.92 2.92,2.78 3.04,2.64 3.17,2.49 3.3,2.34 3.4,2.18 3.52,2.03 3.63,1.85 3.72,1.69 3.82,1.5 3.91,1.33 3.99,1.13 4.06,0.94 4.14,0.74 4.21,0.53 4.26,0.32 4.17,0.11 760.28,0 4.17,-0.11 4.26,-0.32 4.21,-0.53 4.14,-0.74 4.06,-0.94 3.99,-1.13 3.91,-1.33 3.82,-1.5 3.72,-1.69 3.63,-1.85 3.52,-2.03 3.4,-2.18 3.3,-2.34 3.17,-2.49 3.04,-2.64 2.92,-2.78 2.78,-2.92 2.64,-3.04 2.49,-3.17 2.34,-3.3 2.19,-3.4 2.02,-3.52 1.85,-3.63 1.69,-3.72 1.5,-3.82 1.32,-3.91 1.14,-3.99 0.94,-4.06 0.74,-4.14 0.53,-4.21 0.32,-4.26 0.11,-4.17 0,-291.28 -0.11,-4.17 -0.32,-4.26 -0.53,-4.21 -0.74,-4.14 -0.94,-4.06 -1.14,-3.99 -1.32,-3.91 -1.5,-3.82 -1.69,-3.72 -1.85,-3.63 -2.02,-3.52 -2.19,-3.4 -2.34,-3.3 -2.49,-3.17 -2.64,-3.04 -2.78,-2.92 -2.92,-2.78 -3.04,-2.64 -3.17,-2.49 -3.3,-2.34 -3.4,-2.18 -3.52,-2.03 -3.63,-1.85 -3.72,-1.69 -3.82,-1.5 -3.91,-1.33 -3.99,-1.13 -4.06,-0.94 -4.14,-0.74 -4.21,-0.53 -4.26,-0.32 -4.17,-0.11 -760.28,0 -4.17,0.11 -4.26,0.32 -4.21,0.53 -4.14,0.74 -4.06,0.94 -3.99,1.13 -3.91,1.33 -3.82,1.5 -3.72,1.69 -3.63,1.85 -3.52,2.03 -3.4,2.18 -3.3,2.34 -3.17,2.49 -3.04,2.64 -2.92,2.78 -2.78,2.92 -2.64,3.04 -2.49,3.17 -2.34,3.3 -2.18,3.4 -2.03,3.52 -1.85,3.63 -1.69,3.72 -1.5,3.82 -1.32,3.91 -1.14,3.99 -0.94,4.06 -0.74,4.14 -0.53,4.21 -0.32,4.26 -0.11,4.17 0,291.28 0.11,4.17 z m 22.39,-4.6 0,0.29 0,-291 0,0.29 0.09,-3.75 -0.03,0.57 0.28,-3.69 -0.05,0.56 0.46,-3.64 -0.09,0.56 0.64,-3.58 -0.11,0.55 0.81,-3.52 -0.14,0.54 0.98,-3.45 -0.16,0.53 1.14,-3.38 -0.19,0.52 1.3,-3.3 -0.21,0.51 1.46,-3.22 -0.24,0.49 1.6,-3.14 -0.26,0.48 1.76,-3.05 -0.29,0.47 1.9,-2.95 -0.31,0.45 2.03,-2.86 -0.32,0.43 2.16,-2.74 -0.34,0.41 2.28,-2.64 -0.36,0.4 2.41,-2.53 -0.38,0.38 2.53,-2.41 -0.4,0.36 2.64,-2.28 -0.41,0.34 2.74,-2.16 -0.43,0.32 2.86,-2.03 -0.45,0.31 2.95,-1.9 -0.47,0.29 3.05,-1.76 -0.48,0.26 3.14,-1.6 -0.49,0.24 3.22,-1.46 -0.51,0.21 3.3,-1.3 -0.52,0.19 3.38,-1.14 -0.53,0.16 3.45,-0.98 -0.54,0.14 3.52,-0.81 -0.55,0.11 3.58,-0.64 -0.56,0.09 3.64,-0.46 -0.56,0.05 3.69,-0.28 -0.57,0.03 3.75,-0.09 -0.29,0 760,0 -0.29,0 3.75,0.09 -0.57,-0.03 3.69,0.28 -0.56,-0.05 3.64,0.46 -0.56,-0.09 3.58,0.64 -0.55,-0.11 3.52,0.81 -0.54,-0.14 3.45,0.98 -0.53,-0.16 3.38,1.14 -0.52,-0.19 3.3,1.3 -0.51,-0.21 3.23,1.46 -0.5,-0.24 3.14,1.6 -0.48,-0.26 3.05,1.76 -0.47,-0.29 2.95,1.9 -0.44,-0.31 2.85,2.03 -0.43,-0.32 2.74,2.16 -0.41,-0.34 2.64,2.28 -0.4,-0.36 2.53,2.41 -0.38,-0.38 2.41,2.53 -0.36,-0.4 2.28,2.64 -0.34,-0.41 2.16,2.74 -0.32,-0.43 2.03,2.86 -0.31,-0.45 1.9,2.95 -0.29,-0.47 1.76,3.05 -0.26,-0.48 1.6,3.14 -0.23,-0.49 1.45,3.22 -0.21,-0.51 1.3,3.3 -0.19,-0.52 1.14,3.38 -0.16,-0.53 0.98,3.45 -0.14,-0.54 0.81,3.52 -0.11,-0.55 0.64,3.58 -0.09,-0.56 0.46,3.64 -0.05,-0.56 0.28,3.69 -0.03,-0.57 0.09,3.75 0,-0.29 0,291 0,-0.29 -0.09,3.75 0.03,-0.57 -0.28,3.69 0.05,-0.56 -0.46,3.64 0.09,-0.56 -0.64,3.58 0.11,-0.55 -0.81,3.52 0.14,-0.54 -0.98,3.45 0.16,-0.53 -1.14,3.38 0.19,-0.52 -1.3,3.3 0.21,-0.51 -1.45,3.22 0.23,-0.49 -1.6,3.14 0.26,-0.48 -1.76,3.05 0.29,-0.47 -1.9,2.95 0.31,-0.45 -2.03,2.86 0.32,-0.43 -2.16,2.74 0.34,-0.41 -2.28,2.64 0.36,-0.4 -2.41,2.53 0.38,-0.38 -2.53,2.41 0.4,-0.36 -2.64,2.28 0.41,-0.34 -2.74,2.16 0.43,-0.32 -2.85,2.03 0.44,-0.31 -2.95,1.9 0.47,-0.29 -3.05,1.76 0.48,-0.26 -3.14,1.6 0.5,-0.24 -3.23,1.46 0.51,-0.21 -3.3,1.3 0.52,-0.19 -3.38,1.14 0.53,-0.16 -3.45,0.98 0.54,-0.14 -3.52,0.81 0.55,-0.11 -3.58,0.64 0.56,-0.09 -3.64,0.46 0.56,-0.05 -3.69,0.28 0.57,-0.03 -3.75,0.09 0.29,0 -760,0 0.29,0 -3.75,-0.09 0.57,0.03 -3.69,-0.28 0.56,0.05 -3.64,-0.46 0.56,0.09 -3.58,-0.64 0.55,0.11 -3.52,-0.81 0.54,0.14 -3.45,-0.98 0.53,0.16 -3.38,-1.14 0.52,0.19 -3.3,-1.3 0.51,0.21 -3.22,-1.46 0.49,0.24 -3.14,-1.6 0.48,0.26 -3.05,-1.76 0.47,0.29 -2.95,-1.9 0.45,0.31 -2.86,-2.03 0.43,0.32 -2.74,-2.16 0.41,0.34 -2.64,-2.28 0.4,0.36 -2.53,-2.41 0.38,0.38 -2.41,-2.53 0.36,0.4 -2.28,-2.64 0.34,0.41 -2.16,-2.74 0.32,0.43 -2.03,-2.86 0.31,0.45 -1.9,-2.95 0.29,0.47 -1.76,-3.05 0.26,0.48 -1.6,-3.14 0.24,0.49 -1.46,-3.22 0.21,0.51 -1.3,-3.3 0.19,0.52 -1.14,-3.38 0.16,0.53 -0.98,-3.45 0.14,0.54 -0.81,-3.52 0.11,0.55 -0.64,-3.58 0.09,0.56 -0.46,-3.64 0.05,0.56 -0.28,-3.69 0.03,0.57 -0.09,-3.75" /><g
         transform="scale(10,10)"
         id="g64"><text
           id="text66"
           style="font-variant:normal;font-weight:normal;font-size:16.10000038px;font-family:WenQuanYiMicroHei;-inkscape-font-specification:WenQuanYiMicroHei;writing-mode:lr-tb;fill:#000000;fill-opacity:1;fill-rule:nonzero;stroke:none"
           transform="matrix(1,0,0,-1,527.731,172.094)"><tspan
             id="tspan68"
             y="0"
             x="0 9.7499952 16.950401 24.150417 32.700439 47.050064 56.450451 60.600441">Assembly</tspan></text>
</g><path
         id="path70"
         style="fill:#000000;fill-opacity:1;fill-rule:nonzero;stroke:none"
         d="m 5078.5,1742.84 67.5,39.38 0,-19.44 -67.5,39.38 -1.89,1.39 -1.57,1.75 -1.17,2.05 -0.71,2.24 -0.24,2.34 0.26,2.33 0.74,2.24 1.18,2.03 1.58,1.74 1.91,1.37 2.15,0.95 2.31,0.48 2.35,-0.01 2.3,-0.5 2.14,-0.97 84.16,-49.09 -84.16,-49.09 -2.14,-0.97 -2.3,-0.5 -2.35,-0.01 -2.31,0.48 -2.15,0.95 -1.91,1.37 -1.58,1.74 -1.18,2.03 -0.74,2.24 -0.26,2.33 0.24,2.34 0.71,2.24 1.17,2.05 1.57,1.75 1.89,1.39 z m -174.5,40.91 247.67,0 0,-22.5 -247.67,0 0,22.5" /><path
         id="path72"
         style="fill:#ffffff;fill-opacity:1;fill-rule:evenodd;stroke:none"
         d="m 2086.2,812.699 c -0.7,41.231 31.87,73.801 72,74.403 l 396,0 c 41.23,-0.602 73.8,-33.172 74.4,-74.403 l 0,-290.398 c -0.6,-39.731 -33.17,-72.301 -74.4,-72 l -396,0 c -40.13,-0.301 -72.7,32.269 -72,72 l 0,290.398" /><path
         id="path74"
         style="fill:#000000;fill-opacity:1;fill-rule:nonzero;stroke:none"
         d="m 2074.36,818.059 0.32,4.261 0.53,4.211 0.74,4.141 0.94,4.058 1.13,3.989 1.33,3.91 1.5,3.82 1.69,3.723 1.85,3.629 2.02,3.519 2.19,3.399 2.34,3.301 2.49,3.171 2.64,3.039 2.78,2.918 2.92,2.782 3.04,2.64 3.17,2.489 3.3,2.339 3.4,2.192 3.52,2.019 3.63,1.852 3.72,1.687 3.82,1.5 3.91,1.332 3.99,1.129 4.06,0.942 4.14,0.738 4.21,0.531 4.26,0.321 4.17,0.109 397.28,0 4.17,-0.109 4.26,-0.321 4.21,-0.531 4.14,-0.738 4.06,-0.942 3.99,-1.129 3.91,-1.332 3.82,-1.5 3.72,-1.687 3.63,-1.852 3.52,-2.019 3.4,-2.192 3.3,-2.339 3.17,-2.489 3.04,-2.64 2.92,-2.782 2.78,-2.918 2.64,-3.039 2.49,-3.171 2.34,-3.301 2.18,-3.399 2.03,-3.519 1.85,-3.629 1.69,-3.723 1.5,-3.82 1.32,-3.91 1.14,-3.989 0.94,-4.058 0.74,-4.141 0.53,-4.211 0.32,-4.261 0.11,-4.168 0,-291.282 -0.11,-4.168 -0.32,-4.261 -0.53,-4.211 -0.74,-4.137 -0.94,-4.062 -1.14,-3.989 -1.32,-3.91 -1.5,-3.82 -1.69,-3.719 -1.85,-3.633 -2.03,-3.519 -2.18,-3.399 -2.34,-3.301 -2.49,-3.171 -2.64,-3.039 -2.78,-2.918 -2.92,-2.782 -3.04,-2.64 -3.17,-2.489 -3.3,-2.339 -3.4,-2.192 -3.52,-2.019 -3.63,-1.852 -3.72,-1.687 -3.82,-1.5 -3.91,-1.332 -3.99,-1.129 -4.06,-0.942 -4.14,-0.738 -4.21,-0.531 -4.26,-0.321 -4.17,-0.109 -397.28,0 -4.17,0.109 -4.26,0.321 -4.21,0.531 -4.14,0.738 -4.06,0.942 -3.99,1.129 -3.91,1.332 -3.82,1.5 -3.72,1.687 -3.63,1.852 -3.52,2.019 -3.4,2.192 -3.3,2.339 -3.17,2.489 -3.04,2.64 -2.92,2.782 -2.78,2.918 -2.64,3.039 -2.49,3.171 -2.34,3.301 -2.19,3.399 -2.02,3.519 -1.85,3.633 -1.69,3.719 -1.5,3.82 -1.33,3.91 -1.13,3.989 -0.94,4.062 -0.74,4.137 -0.53,4.211 -0.32,4.261 -0.11,4.168 0,291.282 0.11,4.168 z m 22.39,-4.598 0,0.289 0,-291 0,0.289 0.09,-3.75 -0.03,0.57 0.28,-3.687 -0.05,0.558 0.46,-3.64 -0.09,0.558 0.64,-3.578 -0.11,0.551 0.81,-3.519 -0.14,0.539 0.98,-3.45 -0.16,0.528 1.14,-3.379 -0.19,0.519 1.3,-3.3 -0.21,0.511 1.46,-3.218 -0.24,0.488 1.6,-3.141 -0.26,0.481 1.76,-3.051 -0.29,0.473 1.9,-2.954 -0.31,0.442 2.03,-2.852 -0.32,0.434 2.16,-2.742 -0.34,0.41 2.28,-2.641 -0.36,0.403 2.41,-2.532 -0.38,0.379 2.53,-2.41 -0.4,0.359 2.64,-2.277 -0.41,0.34 2.74,-2.16 -0.43,0.32 2.85,-2.031 -0.44,0.308 2.95,-1.898 -0.47,0.289 3.05,-1.758 -0.48,0.258 3.14,-1.598 -0.5,0.239 3.23,-1.461 -0.51,0.211 3.3,-1.301 -0.52,0.191 3.38,-1.14 -0.53,0.16 3.45,-0.981 -0.54,0.141 3.52,-0.809 -0.55,0.11 3.58,-0.641 -0.56,0.09 3.64,-0.461 -0.56,0.051 3.69,-0.281 -0.57,0.031 3.75,-0.09 -0.29,0 397,0 -0.29,0 3.75,0.09 -0.57,-0.031 3.69,0.281 -0.56,-0.051 3.64,0.461 -0.56,-0.09 3.58,0.641 -0.55,-0.11 3.52,0.809 -0.54,-0.141 3.45,0.981 -0.53,-0.16 3.38,1.14 -0.52,-0.191 3.3,1.301 -0.51,-0.211 3.22,1.461 -0.49,-0.239 3.14,1.598 -0.48,-0.258 3.05,1.758 -0.47,-0.289 2.95,1.898 -0.45,-0.308 2.86,2.031 -0.43,-0.32 2.74,2.16 -0.41,-0.34 2.64,2.277 -0.4,-0.359 2.53,2.41 -0.38,-0.379 2.41,2.532 -0.36,-0.403 2.28,2.641 -0.34,-0.41 2.16,2.742 -0.32,-0.434 2.03,2.852 -0.31,-0.442 1.9,2.954 -0.29,-0.473 1.76,3.051 -0.26,-0.481 1.6,3.141 -0.24,-0.488 1.46,3.218 -0.21,-0.511 1.3,3.3 -0.19,-0.519 1.14,3.379 -0.16,-0.528 0.98,3.45 -0.14,-0.539 0.81,3.519 -0.11,-0.551 0.64,3.578 -0.09,-0.558 0.46,3.64 -0.05,-0.558 0.28,3.687 -0.03,-0.57 0.09,3.75 0,-0.289 0,291 0,-0.289 -0.09,3.75 0.03,-0.57 -0.28,3.687 0.05,-0.558 -0.46,3.64 0.09,-0.558 -0.64,3.578 0.11,-0.551 -0.81,3.519 0.14,-0.539 -0.98,3.45 0.16,-0.528 -1.14,3.379 0.19,-0.519 -1.3,3.3 0.21,-0.511 -1.46,3.218 0.24,-0.488 -1.6,3.141 0.26,-0.481 -1.76,3.051 0.29,-0.473 -1.9,2.954 0.31,-0.454 -2.03,2.864 0.32,-0.434 -2.16,2.742 0.34,-0.41 -2.28,2.641 0.36,-0.403 -2.41,2.532 0.38,-0.379 -2.53,2.41 0.4,-0.359 -2.64,2.277 0.41,-0.34 -2.74,2.16 0.43,-0.32 -2.86,2.031 0.45,-0.308 -2.95,1.898 0.47,-0.289 -3.05,1.758 0.48,-0.258 -3.14,1.598 0.49,-0.239 -3.22,1.461 0.51,-0.211 -3.3,1.301 0.52,-0.191 -3.38,1.14 0.53,-0.16 -3.45,0.981 0.54,-0.141 -3.52,0.809 0.55,-0.11 -3.58,0.641 0.56,-0.09 -3.64,0.461 0.56,-0.051 -3.69,0.281 0.57,-0.031 -3.75,0.09 0.29,0 -397,0 0.29,0 -3.75,-0.09 0.57,0.031 -3.69,-0.281 0.56,0.051 -3.64,-0.461 0.56,0.09 -3.58,-0.641 0.55,0.11 -3.52,-0.809 0.54,0.141 -3.45,-0.981 0.53,0.16 -3.38,-1.14 0.52,0.191 -3.3,-1.301 0.51,0.211 -3.23,-1.461 0.5,0.239 -3.14,-1.598 0.48,0.258 -3.05,-1.758 0.47,0.289 -2.95,-1.898 0.44,0.308 -2.85,-2.031 0.43,0.32 -2.74,-2.16 0.41,0.34 -2.64,-2.277 0.4,0.359 -2.53,-2.41 0.38,0.379 -2.41,-2.532 0.36,0.403 -2.28,-2.641 0.34,0.41 -2.16,-2.742 0.32,0.434 -2.03,-2.864 0.31,0.454 -1.9,-2.954 0.29,0.473 -1.76,-3.051 0.26,0.481 -1.6,-3.141 0.24,0.488 -1.46,-3.218 0.21,0.511 -1.3,-3.3 0.19,0.519 -1.14,-3.379 0.16,0.528 -0.98,-3.45 0.14,0.539 -0.81,-3.519 0.11,0.551 -0.64,-3.578 0.09,0.558 -0.46,-3.64 0.05,0.558 -0.28,-3.687 0.03,0.57 -0.09,-3.75" /><g
         transform="scale(10,10)"
         id="g76"><text
           id="text78"
           style="font-variant:normal;font-weight:normal;font-size:16.10000038px;font-family:WenQuanYiMicroHei;-inkscape-font-specification:WenQuanYiMicroHei;writing-mode:lr-tb;fill:#000000;fill-opacity:1;fill-rule:nonzero;stroke:none"
           transform="matrix(1,0,0,-1,219.581,61.6191)"><tspan
             id="tspan80"
             y="0"
             x="0 9.1999912 17.699984 24.899975">Pass</tspan></text>
</g><path
         id="path82"
         style="fill:#ffffff;fill-opacity:1;fill-rule:evenodd;stroke:none"
         d="m 3845.4,812.699 c -0.9,41.231 31.67,73.801 72,74.403 l 396,0 c 41.03,-0.602 73.6,-33.172 74.4,-74.403 l 0,-290.398 c -0.8,-39.731 -33.37,-72.301 -74.4,-72 l -396,0 c -40.33,-0.301 -72.9,32.269 -72,72 l 0,290.398" /><path
         id="path84"
         style="fill:#000000;fill-opacity:1;fill-rule:nonzero;stroke:none"
         d="m 3833.36,818.059 0.32,4.261 0.53,4.211 0.74,4.141 0.94,4.058 1.14,3.989 1.32,3.91 1.5,3.82 1.69,3.723 1.85,3.629 2.03,3.519 2.18,3.399 2.34,3.301 2.49,3.171 2.64,3.039 2.78,2.918 2.92,2.782 3.04,2.64 3.17,2.489 3.3,2.339 3.4,2.192 3.52,2.019 3.63,1.852 3.72,1.687 3.82,1.5 3.91,1.332 3.99,1.129 4.06,0.942 4.14,0.738 4.21,0.531 4.26,0.321 4.17,0.109 397.28,0 4.17,-0.109 4.26,-0.321 4.21,-0.531 4.14,-0.738 4.06,-0.942 3.99,-1.129 3.91,-1.332 3.82,-1.5 3.72,-1.687 3.63,-1.852 3.52,-2.019 3.4,-2.192 3.3,-2.339 3.17,-2.489 3.04,-2.64 2.92,-2.782 2.78,-2.918 2.64,-3.039 2.49,-3.171 2.34,-3.301 2.19,-3.399 2.02,-3.519 1.85,-3.629 1.69,-3.723 1.5,-3.82 1.33,-3.91 1.13,-3.989 0.94,-4.058 0.74,-4.141 0.53,-4.211 0.32,-4.261 0.11,-4.168 0,-291.282 -0.11,-4.168 -0.32,-4.261 -0.53,-4.211 -0.74,-4.137 -0.94,-4.062 -1.13,-3.989 -1.33,-3.91 -1.5,-3.82 -1.69,-3.719 -1.85,-3.633 -2.02,-3.519 -2.19,-3.399 -2.34,-3.301 -2.49,-3.171 -2.64,-3.039 -2.78,-2.918 -2.92,-2.782 -3.04,-2.64 -3.17,-2.489 -3.3,-2.339 -3.4,-2.192 -3.52,-2.019 -3.63,-1.852 -3.72,-1.687 -3.82,-1.5 -3.91,-1.332 -3.99,-1.129 -4.06,-0.942 -4.14,-0.738 -4.21,-0.531 -4.26,-0.321 -4.17,-0.109 -397.28,0 -4.17,0.109 -4.26,0.321 -4.21,0.531 -4.14,0.738 -4.06,0.942 -3.99,1.129 -3.91,1.332 -3.82,1.5 -3.72,1.687 -3.63,1.852 -3.52,2.019 -3.4,2.192 -3.3,2.339 -3.17,2.489 -3.04,2.64 -2.92,2.782 -2.78,2.918 -2.64,3.039 -2.49,3.171 -2.34,3.301 -2.18,3.399 -2.03,3.519 -1.85,3.633 -1.69,3.719 -1.5,3.82 -1.32,3.91 -1.14,3.989 -0.94,4.062 -0.74,4.137 -0.53,4.211 -0.32,4.261 -0.11,4.168 0,291.282 0.11,4.168 z m 22.39,-4.598 0,0.289 0,-291 0,0.289 0.09,-3.75 -0.03,0.57 0.28,-3.687 -0.05,0.558 0.46,-3.64 -0.09,0.558 0.64,-3.578 -0.11,0.551 0.81,-3.519 -0.14,0.539 0.98,-3.45 -0.16,0.528 1.14,-3.379 -0.19,0.519 1.3,-3.3 -0.21,0.511 1.46,-3.218 -0.24,0.488 1.6,-3.141 -0.26,0.481 1.76,-3.051 -0.29,0.473 1.9,-2.954 -0.31,0.442 2.03,-2.852 -0.32,0.434 2.16,-2.742 -0.34,0.41 2.28,-2.641 -0.36,0.403 2.41,-2.532 -0.38,0.379 2.53,-2.41 -0.4,0.359 2.64,-2.277 -0.41,0.34 2.74,-2.16 -0.43,0.32 2.86,-2.031 -0.45,0.308 2.95,-1.898 -0.47,0.289 3.05,-1.758 -0.48,0.258 3.14,-1.598 -0.49,0.239 3.22,-1.461 -0.51,0.211 3.3,-1.301 -0.52,0.191 3.38,-1.14 -0.53,0.16 3.45,-0.981 -0.54,0.141 3.52,-0.809 -0.55,0.11 3.58,-0.641 -0.56,0.09 3.64,-0.461 -0.56,0.051 3.69,-0.281 -0.57,0.031 3.75,-0.09 -0.29,0 397,0 -0.29,0 3.75,0.09 -0.57,-0.031 3.69,0.281 -0.56,-0.051 3.64,0.461 -0.56,-0.09 3.58,0.641 -0.55,-0.11 3.52,0.809 -0.54,-0.141 3.45,0.981 -0.53,-0.16 3.38,1.14 -0.52,-0.191 3.3,1.301 -0.51,-0.211 3.22,1.461 -0.49,-0.239 3.14,1.598 -0.48,-0.258 3.05,1.758 -0.47,-0.289 2.95,1.898 -0.44,-0.308 2.85,2.031 -0.43,-0.32 2.74,2.16 -0.41,-0.34 2.64,2.277 -0.4,-0.359 2.53,2.41 -0.38,-0.379 2.41,2.532 -0.36,-0.403 2.28,2.641 -0.34,-0.41 2.16,2.742 -0.32,-0.434 2.03,2.852 -0.31,-0.442 1.9,2.954 -0.28,-0.473 1.75,3.051 -0.26,-0.481 1.6,3.141 -0.23,-0.488 1.45,3.218 -0.21,-0.511 1.3,3.3 -0.19,-0.519 1.14,3.379 -0.16,-0.528 0.98,3.45 -0.14,-0.539 0.81,3.519 -0.11,-0.551 0.64,3.578 -0.09,-0.558 0.46,3.64 -0.05,-0.558 0.28,3.687 -0.03,-0.57 0.09,3.75 0,-0.289 0,291 0,-0.289 -0.09,3.75 0.03,-0.57 -0.28,3.687 0.05,-0.558 -0.46,3.64 0.09,-0.558 -0.64,3.578 0.11,-0.551 -0.81,3.519 0.14,-0.539 -0.98,3.45 0.16,-0.528 -1.14,3.379 0.19,-0.519 -1.3,3.3 0.21,-0.511 -1.45,3.218 0.23,-0.488 -1.6,3.141 0.26,-0.481 -1.75,3.051 0.28,-0.473 -1.9,2.954 0.31,-0.454 -2.03,2.864 0.32,-0.434 -2.16,2.742 0.34,-0.41 -2.28,2.641 0.36,-0.403 -2.41,2.532 0.38,-0.379 -2.53,2.41 0.4,-0.359 -2.64,2.277 0.41,-0.34 -2.74,2.16 0.43,-0.32 -2.85,2.031 0.44,-0.308 -2.95,1.898 0.47,-0.289 -3.05,1.758 0.48,-0.258 -3.14,1.598 0.49,-0.239 -3.22,1.461 0.51,-0.211 -3.3,1.301 0.52,-0.191 -3.38,1.14 0.53,-0.16 -3.45,0.981 0.54,-0.141 -3.52,0.809 0.55,-0.11 -3.58,0.641 0.56,-0.09 -3.64,0.461 0.56,-0.051 -3.69,0.281 0.57,-0.031 -3.75,0.09 0.29,0 -397,0 0.29,0 -3.75,-0.09 0.57,0.031 -3.69,-0.281 0.56,0.051 -3.64,-0.461 0.56,0.09 -3.58,-0.641 0.55,0.11 -3.52,-0.809 0.54,0.141 -3.45,-0.981 0.53,0.16 -3.38,-1.14 0.52,0.191 -3.3,-1.301 0.51,0.211 -3.22,-1.461 0.49,0.239 -3.14,-1.598 0.48,0.258 -3.05,-1.758 0.47,0.289 -2.95,-1.898 0.45,0.308 -2.86,-2.031 0.43,0.32 -2.74,-2.16 0.41,0.34 -2.64,-2.277 0.4,0.359 -2.53,-2.41 0.38,0.379 -2.41,-2.532 0.36,0.403 -2.28,-2.641 0.34,0.41 -2.16,-2.742 0.32,0.434 -2.03,-2.864 0.31,0.454 -1.9,-2.954 0.29,0.473 -1.76,-3.051 0.26,0.481 -1.6,-3.141 0.24,0.488 -1.46,-3.218 0.21,0.511 -1.3,-3.3 0.19,0.519 -1.14,-3.379 0.16,0.528 -0.98,-3.45 0.14,0.539 -0.81,-3.519 0.11,0.551 -0.64,-3.578 0.09,0.558 -0.46,-3.64 0.05,0.558 -0.28,-3.687 0.03,0.57 -0.09,-3.75" /><g
         transform="scale(10,10)"
         id="g86"><text
           id="text88"
           style="font-variant:normal;font-weight:normal;font-size:16.10000038px;font-family:WenQuanYiMicroHei;-inkscape-font-specification:WenQuanYiMicroHei;writing-mode:lr-tb;fill:#000000;fill-opacity:1;fill-rule:nonzero;stroke:none"
           transform="matrix(1,0,0,-1,395.481,61.6191)"><tspan
             id="tspan90"
             y="0"
             x="0 9.1999912 17.700375 24.900391">Pass</tspan></text>
</g><path
         id="path92"
         style="fill:#ffffff;fill-opacity:1;fill-rule:evenodd;stroke:none"
         d="m 4723.8,812.699 c 0.2,41.231 32.77,73.801 72,74.403 l 398.4,0 c 39.73,-0.602 72.3,-33.172 72,-74.403 l 0,-290.398 c 0.3,-39.731 -32.27,-72.301 -72,-72 l -398.4,0 c -39.23,-0.301 -71.8,32.269 -72,72 l 0,290.398" /><path
         id="path94"
         style="fill:#000000;fill-opacity:1;fill-rule:nonzero;stroke:none"
         d="m 4712.86,818.059 0.32,4.261 0.53,4.211 0.74,4.141 0.94,4.058 1.13,3.989 1.33,3.91 1.5,3.82 1.69,3.723 1.85,3.629 2.02,3.519 2.19,3.399 2.34,3.301 2.49,3.171 2.64,3.039 2.78,2.918 2.92,2.782 3.04,2.64 3.17,2.489 3.3,2.339 3.4,2.192 3.52,2.019 3.63,1.852 3.72,1.687 3.82,1.5 3.91,1.332 3.99,1.129 4.06,0.942 4.14,0.738 4.21,0.531 4.26,0.321 4.17,0.109 397.28,0 4.17,-0.109 4.26,-0.321 4.21,-0.531 4.14,-0.738 4.06,-0.942 3.99,-1.129 3.91,-1.332 3.82,-1.5 3.72,-1.687 3.63,-1.852 3.52,-2.019 3.4,-2.192 3.3,-2.339 3.17,-2.489 3.04,-2.64 2.92,-2.782 2.78,-2.918 2.64,-3.039 2.49,-3.171 2.34,-3.301 2.18,-3.399 2.03,-3.519 1.85,-3.629 1.69,-3.723 1.5,-3.82 1.32,-3.91 1.14,-3.989 0.94,-4.058 0.74,-4.141 0.53,-4.211 0.32,-4.261 0.11,-4.168 0,-291.282 -0.11,-4.168 -0.32,-4.261 -0.53,-4.211 -0.74,-4.137 -0.94,-4.062 -1.14,-3.989 -1.32,-3.91 -1.5,-3.82 -1.69,-3.719 -1.85,-3.633 -2.03,-3.519 -2.18,-3.399 -2.34,-3.301 -2.49,-3.171 -2.64,-3.039 -2.78,-2.918 -2.92,-2.782 -3.04,-2.64 -3.17,-2.489 -3.3,-2.339 -3.4,-2.192 -3.52,-2.019 -3.63,-1.852 -3.72,-1.687 -3.82,-1.5 -3.91,-1.332 -3.99,-1.129 -4.06,-0.942 -4.14,-0.738 -4.21,-0.531 -4.26,-0.321 -4.17,-0.109 -397.28,0 -4.17,0.109 -4.26,0.321 -4.21,0.531 -4.14,0.738 -4.06,0.942 -3.99,1.129 -3.91,1.332 -3.82,1.5 -3.72,1.687 -3.63,1.852 -3.52,2.019 -3.4,2.192 -3.3,2.339 -3.17,2.489 -3.04,2.64 -2.92,2.782 -2.78,2.918 -2.64,3.039 -2.49,3.171 -2.34,3.301 -2.19,3.399 -2.02,3.519 -1.85,3.633 -1.69,3.719 -1.5,3.82 -1.33,3.91 -1.13,3.989 -0.94,4.062 -0.74,4.137 -0.53,4.211 -0.32,4.261 -0.11,4.168 0,291.282 0.11,4.168 z m 22.39,-4.598 0,0.289 0,-291 0,0.289 0.09,-3.75 -0.03,0.57 0.28,-3.687 -0.05,0.558 0.46,-3.64 -0.09,0.558 0.64,-3.578 -0.11,0.551 0.81,-3.519 -0.14,0.539 0.98,-3.45 -0.16,0.528 1.14,-3.379 -0.19,0.519 1.3,-3.3 -0.21,0.511 1.45,-3.218 -0.23,0.488 1.6,-3.141 -0.26,0.481 1.75,-3.051 -0.28,0.473 1.9,-2.954 -0.31,0.442 2.03,-2.852 -0.32,0.434 2.16,-2.742 -0.34,0.41 2.28,-2.641 -0.36,0.403 2.41,-2.532 -0.38,0.379 2.53,-2.41 -0.4,0.359 2.64,-2.277 -0.41,0.34 2.74,-2.16 -0.43,0.32 2.85,-2.031 -0.44,0.308 2.95,-1.898 -0.47,0.289 3.05,-1.758 -0.48,0.258 3.14,-1.598 -0.5,0.239 3.23,-1.461 -0.51,0.211 3.3,-1.301 -0.52,0.191 3.38,-1.14 -0.53,0.16 3.45,-0.981 -0.54,0.141 3.52,-0.809 -0.55,0.11 3.58,-0.641 -0.56,0.09 3.64,-0.461 -0.56,0.051 3.69,-0.281 -0.57,0.031 3.75,-0.09 -0.29,0 397,0 -0.29,0 3.75,0.09 -0.57,-0.031 3.69,0.281 -0.56,-0.051 3.64,0.461 -0.56,-0.09 3.58,0.641 -0.55,-0.11 3.52,0.809 -0.54,-0.141 3.45,0.981 -0.53,-0.16 3.38,1.14 -0.52,-0.191 3.3,1.301 -0.51,-0.211 3.22,1.461 -0.49,-0.239 3.14,1.598 -0.48,-0.258 3.04,1.758 -0.46,-0.289 2.95,1.898 -0.45,-0.308 2.86,2.031 -0.43,-0.32 2.74,2.16 -0.41,-0.34 2.64,2.277 -0.4,-0.359 2.53,2.41 -0.38,-0.379 2.41,2.532 -0.36,-0.403 2.28,2.641 -0.34,-0.41 2.16,2.742 -0.32,-0.434 2.03,2.852 -0.31,-0.442 1.9,2.954 -0.29,-0.473 1.76,3.051 -0.26,-0.481 1.6,3.141 -0.24,-0.488 1.46,3.218 -0.21,-0.511 1.3,3.3 -0.19,-0.519 1.14,3.379 -0.16,-0.528 0.98,3.45 -0.14,-0.539 0.81,3.519 -0.11,-0.551 0.64,3.578 -0.09,-0.558 0.46,3.64 -0.05,-0.558 0.28,3.687 -0.03,-0.57 0.09,3.75 0,-0.289 0,291 0,-0.289 -0.09,3.75 0.03,-0.57 -0.28,3.687 0.05,-0.558 -0.46,3.64 0.09,-0.558 -0.64,3.578 0.11,-0.551 -0.81,3.519 0.14,-0.539 -0.98,3.45 0.16,-0.528 -1.14,3.379 0.19,-0.519 -1.3,3.3 0.21,-0.511 -1.46,3.218 0.24,-0.488 -1.6,3.141 0.26,-0.481 -1.76,3.051 0.29,-0.473 -1.9,2.954 0.31,-0.454 -2.03,2.864 0.32,-0.434 -2.16,2.742 0.34,-0.41 -2.28,2.641 0.36,-0.403 -2.41,2.532 0.38,-0.379 -2.53,2.41 0.4,-0.359 -2.64,2.277 0.41,-0.34 -2.74,2.16 0.43,-0.32 -2.86,2.031 0.45,-0.308 -2.95,1.898 0.46,-0.289 -3.04,1.758 0.48,-0.258 -3.14,1.598 0.49,-0.239 -3.22,1.461 0.51,-0.211 -3.3,1.301 0.52,-0.191 -3.38,1.14 0.53,-0.16 -3.45,0.981 0.54,-0.141 -3.52,0.809 0.55,-0.11 -3.58,0.641 0.56,-0.09 -3.64,0.461 0.56,-0.051 -3.69,0.281 0.57,-0.031 -3.75,0.09 0.29,0 -397,0 0.29,0 -3.75,-0.09 0.57,0.031 -3.69,-0.281 0.56,0.051 -3.64,-0.461 0.56,0.09 -3.58,-0.641 0.55,0.11 -3.52,-0.809 0.54,0.141 -3.45,-0.981 0.53,0.16 -3.38,-1.14 0.52,0.191 -3.3,-1.301 0.51,0.211 -3.23,-1.461 0.5,0.239 -3.14,-1.598 0.48,0.258 -3.05,-1.758 0.47,0.289 -2.95,-1.898 0.44,0.308 -2.85,-2.031 0.43,0.32 -2.74,-2.16 0.41,0.34 -2.64,-2.277 0.4,0.359 -2.53,-2.41 0.38,0.379 -2.41,-2.532 0.36,0.403 -2.28,-2.641 0.34,0.41 -2.16,-2.742 0.32,0.434 -2.03,-2.864 0.31,0.454 -1.9,-2.954 0.28,0.473 -1.75,-3.051 0.26,0.481 -1.6,-3.141 0.23,0.488 -1.45,-3.218 0.21,0.511 -1.3,-3.3 0.19,0.519 -1.14,-3.379 0.16,0.528 -0.98,-3.45 0.14,0.539 -0.81,-3.519 0.11,0.551 -0.64,-3.578 0.09,0.558 -0.46,-3.64 0.05,0.558 -0.28,-3.687 0.03,0.57 -0.09,-3.75" /><g
         transform="scale(10,10)"
         id="g96"><text
           id="text98"
           style="font-variant:normal;font-weight:normal;font-size:16.10000038px;font-family:WenQuanYiMicroHei;-inkscape-font-specification:WenQuanYiMicroHei;writing-mode:lr-tb;fill:#000000;fill-opacity:1;fill-rule:nonzero;stroke:none"
           transform="matrix(1,0,0,-1,492.081,61.6191)"><tspan
             id="tspan100"
             y="0"
             x="0 5.400003">IR</tspan></text>
</g><path
         id="path102"
         style="fill:#000000;fill-opacity:1;fill-rule:nonzero;stroke:none"
         d="m 1553.37,951.641 -69.23,-36.262 16.47,-10.328 2.51,78.109 -0.17,2.34 -0.66,2.262 -1.11,2.078 -1.51,1.789 -1.86,1.453 -2.12,1.02 -2.28,0.558 -2.35,0.078 -2.32,-0.418 -2.17,-0.879 -1.95,-1.32 -1.63,-1.699 -1.24,-2 -0.8,-2.211 -0.32,-2.332 -3.13,-97.379 86.31,45.211 1.96,1.301 1.64,1.679 1.26,1.989 0.82,2.199 0.34,2.332 -0.15,2.348 -0.64,2.261 -1.09,2.09 -1.5,1.809 -1.84,1.461 -2.11,1.039 -2.28,0.582 -2.35,0.097 -2.32,-0.386 -2.18,-0.871 z m 333.6,608.839 -407.14,-649.089 19.06,-11.95 407.14,649.079 -19.06,11.96" /><path
         id="path104"
         style="fill:#ffffff;fill-opacity:1;fill-rule:evenodd;stroke:none"
         d="m 2964.6,812.699 c 0.4,41.231 32.97,73.801 72,74.403 l 398.4,0 c 39.93,-0.602 72.5,-33.172 72,-74.403 l 0,-290.398 c 0.5,-39.731 -32.07,-72.301 -72,-72 l -398.4,0 c -39.03,-0.301 -71.6,32.269 -72,72 l 0,290.398" /><path
         id="path106"
         style="fill:#000000;fill-opacity:1;fill-rule:nonzero;stroke:none"
         d="m 2953.86,818.059 0.32,4.261 0.53,4.211 0.74,4.141 0.94,4.058 1.13,3.989 1.33,3.91 1.5,3.82 1.69,3.723 1.85,3.629 2.02,3.519 2.19,3.399 2.34,3.301 2.49,3.171 2.64,3.039 2.78,2.918 2.92,2.782 3.04,2.64 3.17,2.489 3.3,2.339 3.4,2.192 3.52,2.019 3.63,1.852 3.72,1.687 3.82,1.5 3.91,1.332 3.99,1.129 4.06,0.942 4.14,0.738 4.21,0.531 4.26,0.321 4.17,0.109 397.28,0 4.17,-0.109 4.26,-0.321 4.21,-0.531 4.14,-0.738 4.06,-0.942 3.99,-1.129 3.91,-1.332 3.82,-1.5 3.72,-1.687 3.63,-1.852 3.52,-2.019 3.4,-2.192 3.3,-2.339 3.17,-2.489 3.04,-2.64 2.92,-2.782 2.78,-2.918 2.64,-3.039 2.49,-3.171 2.34,-3.301 2.19,-3.399 2.02,-3.519 1.85,-3.629 1.69,-3.723 1.5,-3.82 1.32,-3.91 1.14,-3.989 0.94,-4.058 0.74,-4.141 0.53,-4.211 0.32,-4.261 0.11,-4.168 0,-291.282 -0.11,-4.168 -0.32,-4.261 -0.53,-4.211 -0.74,-4.137 -0.94,-4.062 -1.14,-3.989 -1.32,-3.91 -1.5,-3.82 -1.69,-3.719 -1.85,-3.633 -2.02,-3.519 -2.19,-3.399 -2.34,-3.301 -2.49,-3.171 -2.64,-3.039 -2.78,-2.918 -2.92,-2.782 -3.04,-2.64 -3.17,-2.489 -3.3,-2.339 -3.4,-2.192 -3.52,-2.019 -3.63,-1.852 -3.72,-1.687 -3.82,-1.5 -3.91,-1.332 -3.99,-1.129 -4.06,-0.942 -4.14,-0.738 -4.21,-0.531 -4.26,-0.321 -4.17,-0.109 -397.28,0 -4.17,0.109 -4.26,0.321 -4.21,0.531 -4.14,0.738 -4.06,0.942 -3.99,1.129 -3.91,1.332 -3.82,1.5 -3.72,1.687 -3.63,1.852 -3.52,2.019 -3.4,2.192 -3.3,2.339 -3.17,2.489 -3.04,2.64 -2.92,2.782 -2.78,2.918 -2.64,3.039 -2.49,3.171 -2.34,3.301 -2.19,3.399 -2.02,3.519 -1.85,3.633 -1.69,3.719 -1.5,3.82 -1.33,3.91 -1.13,3.989 -0.94,4.062 -0.74,4.137 -0.53,4.211 -0.32,4.261 -0.11,4.168 0,291.282 0.11,4.168 z m 22.39,-4.598 0,0.289 0,-291 0,0.289 0.09,-3.75 -0.03,0.57 0.28,-3.687 -0.05,0.558 0.46,-3.64 -0.09,0.558 0.64,-3.578 -0.11,0.551 0.81,-3.519 -0.14,0.539 0.98,-3.45 -0.16,0.528 1.14,-3.379 -0.19,0.519 1.3,-3.3 -0.21,0.511 1.46,-3.218 -0.24,0.488 1.6,-3.141 -0.26,0.481 1.76,-3.051 -0.29,0.473 1.9,-2.954 -0.31,0.442 2.03,-2.852 -0.32,0.434 2.16,-2.742 -0.34,0.41 2.28,-2.641 -0.36,0.403 2.41,-2.532 -0.38,0.379 2.53,-2.41 -0.4,0.359 2.64,-2.277 -0.41,0.34 2.74,-2.16 -0.43,0.32 2.85,-2.031 -0.44,0.308 2.95,-1.898 -0.47,0.289 3.05,-1.758 -0.48,0.258 3.14,-1.598 -0.49,0.239 3.22,-1.461 -0.51,0.211 3.3,-1.301 -0.52,0.191 3.38,-1.14 -0.53,0.16 3.45,-0.981 -0.54,0.141 3.52,-0.809 -0.55,0.11 3.58,-0.641 -0.56,0.09 3.64,-0.461 -0.56,0.051 3.69,-0.281 -0.57,0.031 3.75,-0.09 -0.29,0 397,0 -0.29,0 3.75,0.09 -0.57,-0.031 3.69,0.281 -0.56,-0.051 3.64,0.461 -0.56,-0.09 3.58,0.641 -0.55,-0.11 3.52,0.809 -0.54,-0.141 3.45,0.981 -0.53,-0.16 3.38,1.14 -0.52,-0.191 3.3,1.301 -0.51,-0.211 3.22,1.461 -0.49,-0.239 3.14,1.598 -0.48,-0.258 3.05,1.758 -0.47,-0.289 2.95,1.898 -0.44,-0.308 2.85,2.031 -0.43,-0.32 2.74,2.16 -0.41,-0.34 2.64,2.277 -0.4,-0.359 2.53,2.41 -0.38,-0.379 2.41,2.532 -0.36,-0.403 2.28,2.641 -0.34,-0.41 2.16,2.742 -0.32,-0.434 2.03,2.852 -0.31,-0.442 1.9,2.954 -0.29,-0.473 1.76,3.051 -0.26,-0.481 1.6,3.141 -0.23,-0.488 1.45,3.218 -0.21,-0.511 1.3,3.3 -0.19,-0.519 1.14,3.379 -0.16,-0.528 0.98,3.45 -0.14,-0.539 0.81,3.519 -0.11,-0.551 0.64,3.578 -0.09,-0.558 0.46,3.64 -0.05,-0.558 0.28,3.687 -0.03,-0.57 0.09,3.75 0,-0.289 0,291 0,-0.289 -0.09,3.75 0.03,-0.57 -0.28,3.687 0.05,-0.558 -0.46,3.64 0.09,-0.558 -0.64,3.578 0.11,-0.551 -0.81,3.519 0.14,-0.539 -0.98,3.45 0.16,-0.528 -1.14,3.379 0.19,-0.519 -1.3,3.3 0.21,-0.511 -1.45,3.218 0.23,-0.488 -1.6,3.141 0.26,-0.481 -1.76,3.051 0.29,-0.473 -1.9,2.954 0.31,-0.454 -2.03,2.864 0.32,-0.434 -2.16,2.742 0.34,-0.41 -2.28,2.641 0.36,-0.403 -2.41,2.532 0.38,-0.379 -2.53,2.41 0.4,-0.359 -2.64,2.277 0.41,-0.34 -2.74,2.16 0.43,-0.32 -2.85,2.031 0.44,-0.308 -2.95,1.898 0.47,-0.289 -3.05,1.758 0.48,-0.258 -3.14,1.598 0.49,-0.239 -3.22,1.461 0.51,-0.211 -3.3,1.301 0.52,-0.191 -3.38,1.14 0.53,-0.16 -3.45,0.981 0.54,-0.141 -3.52,0.809 0.55,-0.11 -3.58,0.641 0.56,-0.09 -3.64,0.461 0.56,-0.051 -3.69,0.281 0.57,-0.031 -3.75,0.09 0.29,0 -397,0 0.29,0 -3.75,-0.09 0.57,0.031 -3.69,-0.281 0.56,0.051 -3.64,-0.461 0.56,0.09 -3.58,-0.641 0.55,0.11 -3.52,-0.809 0.54,0.141 -3.45,-0.981 0.53,0.16 -3.38,-1.14 0.52,0.191 -3.3,-1.301 0.51,0.211 -3.22,-1.461 0.49,0.239 -3.14,-1.598 0.48,0.258 -3.05,-1.758 0.47,0.289 -2.95,-1.898 0.44,0.308 -2.85,-2.031 0.43,0.32 -2.74,-2.16 0.41,0.34 -2.64,-2.277 0.4,0.359 -2.53,-2.41 0.38,0.379 -2.41,-2.532 0.36,0.403 -2.28,-2.641 0.34,0.41 -2.16,-2.742 0.32,0.434 -2.03,-2.864 0.31,0.454 -1.9,-2.954 0.29,0.473 -1.76,-3.051 0.26,0.481 -1.6,-3.141 0.24,0.488 -1.46,-3.218 0.21,0.511 -1.3,-3.3 0.19,0.519 -1.14,-3.379 0.16,0.528 -0.98,-3.45 0.14,0.539 -0.81,-3.519 0.11,0.551 -0.64,-3.578 0.09,0.558 -0.46,-3.64 0.05,0.558 -0.28,-3.687 0.03,0.57 -0.09,-3.75" /><g
         transform="scale(10,10)"
         id="g108"><text
           id="text110"
           style="font-variant:normal;font-weight:normal;font-size:16.10000038px;font-family:WenQuanYiMicroHei;-inkscape-font-specification:WenQuanYiMicroHei;writing-mode:lr-tb;fill:#000000;fill-opacity:1;fill-rule:nonzero;stroke:none"
           transform="matrix(1,0,0,-1,317.131,61.6191)"><tspan
             id="tspan112"
             y="0"
             x="0 4.300005 8.6000099">...</tspan></text>
</g><path
         id="path114"
         style="fill:#000000;fill-opacity:1;fill-rule:nonzero;stroke:none"
         d="m 1990,638.34 67.5,39.379 0,-19.438 -67.5,39.379 -1.89,1.391 -1.57,1.75 -1.17,2.051 -0.71,2.238 -0.24,2.34 0.26,2.332 0.74,2.238 1.18,2.031 1.58,1.739 1.91,1.371 2.15,0.949 2.31,0.48 2.35,-0.011 2.3,-0.5 2.14,-0.969 84.16,-49.09 -84.16,-49.09 -2.14,-0.969 -2.3,-0.5 -2.35,-0.011 -2.31,0.48 -2.15,0.949 -1.91,1.371 -1.58,1.739 -1.18,2.031 -0.74,2.238 -0.26,2.332 0.24,2.34 0.71,2.238 1.17,2.051 1.57,1.75 1.89,1.391 z m -241.5,40.91 314.67,0 0,-22.5 -314.67,0 0,22.5" /><path
         id="path116"
         style="fill:#000000;fill-opacity:1;fill-rule:nonzero;stroke:none"
         d="m 2869.5,638.34 67.5,39.379 0,-19.438 -67.5,39.379 -1.89,1.391 -1.57,1.75 -1.17,2.051 -0.71,2.238 -0.24,2.34 0.26,2.332 0.74,2.238 1.18,2.031 1.58,1.739 1.91,1.371 2.15,0.949 2.31,0.48 2.35,-0.011 2.3,-0.5 2.14,-0.969 84.16,-49.09 -84.16,-49.09 -2.14,-0.969 -2.3,-0.5 -2.35,-0.011 -2.31,0.48 -2.15,0.949 -1.91,1.371 -1.58,1.739 -1.18,2.031 -0.74,2.238 -0.26,2.332 0.24,2.34 0.71,2.238 1.17,2.051 1.57,1.75 1.89,1.391 z m -241.5,40.91 314.67,0 0,-22.5 -314.67,0 0,22.5" /><path
         id="path118"
         style="fill:#000000;fill-opacity:1;fill-rule:nonzero;stroke:none"
         d="m 3749,638.34 67.5,39.379 0,-19.438 -67.5,39.379 -1.89,1.391 -1.57,1.75 -1.17,2.051 -0.71,2.238 -0.24,2.34 0.26,2.332 0.74,2.238 1.18,2.031 1.58,1.739 1.91,1.371 2.15,0.949 2.31,0.48 2.35,-0.011 2.3,-0.5 2.14,-0.969 84.16,-49.09 -84.16,-49.09 -2.14,-0.969 -2.3,-0.5 -2.35,-0.011 -2.31,0.48 -2.15,0.949 -1.91,1.371 -1.58,1.739 -1.18,2.031 -0.74,2.238 -0.26,2.332 0.24,2.34 0.71,2.238 1.17,2.051 1.57,1.75 1.89,1.391 z m -241.5,40.91 314.67,0 0,-22.5 -314.67,0 0,22.5" /><path
         id="path120"
         style="fill:#000000;fill-opacity:1;fill-rule:nonzero;stroke:none"
         d="m 4628.5,638.34 67.5,39.379 0,-19.438 -67.5,39.379 -1.89,1.391 -1.57,1.75 -1.16,2.051 -0.72,2.238 -0.24,2.34 0.26,2.332 0.74,2.238 1.18,2.031 1.58,1.739 1.91,1.371 2.15,0.949 2.31,0.48 2.35,-0.011 2.3,-0.5 2.14,-0.969 84.16,-49.09 -84.16,-49.09 -2.14,-0.969 -2.3,-0.5 -2.35,-0.011 -2.31,0.48 -2.15,0.949 -1.91,1.371 -1.58,1.739 -1.18,2.031 -0.74,2.238 -0.26,2.332 0.24,2.34 0.72,2.238 1.16,2.051 1.57,1.75 1.89,1.391 z m -241.5,40.91 314.67,0 0,-22.5 -314.67,0 0,22.5" /><path
         id="path122"
         style="fill:#000000;fill-opacity:1;fill-rule:nonzero;stroke:none"
         d="m 4528.14,1499.7 -73.32,27.02 14.99,12.37 12.58,-77.13 0.13,-2.35 -0.36,-2.32 -0.83,-2.2 -1.27,-1.98 -1.66,-1.67 -1.96,-1.29 -2.2,-0.85 -2.32,-0.38 -2.35,0.11 -2.27,0.6 -2.1,1.06 -1.84,1.47 -1.48,1.82 -1.08,2.09 -0.62,2.27 -15.68,96.16 91.42,-33.68 2.11,-1.04 1.85,-1.46 1.5,-1.81 1.1,-2.08 0.64,-2.26 0.15,-2.35 -0.33,-2.33 -0.81,-2.2 -1.26,-1.99 -1.64,-1.69 -1.95,-1.3 -2.19,-0.88 -2.32,-0.4 -2.35,0.1 -2.28,0.57 z m 458.68,-620.36 -536.79,650.78 17.36,14.31 536.79,-650.77 -17.36,-14.32" /></g></g></svg>